<svg width="30" height="30" viewBox="0 0 30 30" fill="none" xmlns="http://www.w3.org/2000/svg"><path d="M30 15.0005C30 22.5765 24.3843 28.8396 17.089 29.856C16.4068 29.9506 15.7089 30 15.0005 30C14.1828 30 13.3798 29.9348 12.5978 29.8087C5.45493 28.6589 0 22.4661 0 15.0005C0 6.71618 6.71618 0 14.9995 0C23.2828 0 30 6.71618 30 15.0005Z" fill="#2A2A2A"></path><path d="M17.0888 12.0439V15.3116H21.1311L20.491 19.7134H17.0888V29.8549C16.4067 29.9495 15.7088 29.9989 15.0004 29.9989C14.1827 29.9989 13.3797 29.9337 12.5977 29.8076V19.7134H8.86963V15.3116H12.5977V11.3134C12.5977 8.83293 14.6083 6.82123 17.0899 6.82123V6.82333C17.0972 6.82333 17.1035 6.82123 17.1109 6.82123H21.1322V10.6281H18.5046C17.7236 10.6281 17.0899 11.2619 17.0899 12.0428L17.0888 12.0439Z" fill="white"></path></svg>