<svg width="30" height="30" viewBox="0 0 30 30" fill="none" xmlns="http://www.w3.org/2000/svg"><path d="M30 15C30 6.71573 23.2843 0 15 0C6.71574 0 0 6.71573 0 15C0 23.2843 6.71574 30 15 30C23.2843 30 30 23.2843 30 15Z" fill="#2A2A2A"></path><path d="M21.3676 21.6436C20.9207 21.6921 20.4632 21.7006 20.0247 21.6995C16.6044 21.6963 13.184 21.6932 9.76471 21.6911C8.68854 21.6911 7.51645 21.6563 6.68482 20.9722C5.74778 20.1996 5.55278 18.8599 5.47689 17.6478C5.37149 15.9866 5.36306 14.3202 5.44949 12.658C5.49692 11.7452 5.58019 10.8102 5.97334 9.98388C6.25582 9.39046 6.72698 8.85712 7.32989 8.57674C8.03082 8.25105 8.76443 8.30902 9.51912 8.30797C11.3257 8.30586 13.1324 8.3048 14.939 8.30269C16.8173 8.30059 18.6966 8.29953 20.5749 8.29742C21.4624 8.29742 22.4153 8.31534 23.1394 8.82866C24.0743 9.49059 24.3283 10.7502 24.4453 11.8896C24.6614 13.9882 24.6646 16.1089 24.4538 18.2075C24.3663 19.0728 24.2208 19.9878 23.6506 20.6444C23.0856 21.2958 22.2477 21.5467 21.3686 21.6426L21.3676 21.6436Z" fill="white"></path><path d="M18.0587 15.0002L12.9614 12.0573V17.9431L18.0587 15.0002Z" fill="#2A2A2A"></path></svg>