<svg width="30" height="30" viewBox="0 0 30 30" fill="none" xmlns="http://www.w3.org/2000/svg"><g id="sns_btn1"><path id="Vector" d="M15.0342 0H14.9658C6.70044 0 0 6.70044 0 14.9658V15.0342C0 23.2996 6.70044 30 14.9658 30H15.0342C23.2996 30 30 23.2996 30 15.0342V14.9658C30 6.70044 23.2996 0 15.0342 0Z" fill="#2A2A2A"></path><g id="Group"><path id="Vector_2" d="M19.642 6.10339H10.3591C7.79458 6.10339 5.70825 8.18972 5.70825 10.7543V19.2467C5.70825 21.8113 7.79458 23.8976 10.3591 23.8976H19.642C22.2065 23.8976 24.2928 21.8113 24.2928 19.2467V10.7543C24.2928 8.18972 22.2065 6.10339 19.642 6.10339ZM7.34894 10.7543C7.34894 9.09467 8.69953 7.74408 10.3591 7.74408H19.642C21.3016 7.74408 22.6522 9.09467 22.6522 10.7543V19.2467C22.6522 20.9063 21.3016 22.2569 19.642 22.2569H10.3591C8.69953 22.2569 7.34894 20.9063 7.34894 19.2467V10.7543Z" fill="white"></path><path id="Vector_3" d="M15.0004 19.3255C17.3852 19.3255 19.3265 17.3853 19.3265 14.9994C19.3265 12.6136 17.3863 10.6733 15.0004 10.6733C12.6146 10.6733 10.6743 12.6136 10.6743 14.9994C10.6743 17.3853 12.6146 19.3255 15.0004 19.3255ZM15.0004 12.3151C16.4813 12.3151 17.6858 13.5196 17.6858 15.0005C17.6858 16.4814 16.4813 17.6859 15.0004 17.6859C13.5195 17.6859 12.315 16.4814 12.315 15.0005C12.315 13.5196 13.5195 12.3151 15.0004 12.3151Z" fill="white"></path><path id="Vector_4" d="M19.7268 11.3723C20.3688 11.3723 20.8921 10.8499 20.8921 10.2067C20.8921 9.56345 20.3698 9.04108 19.7268 9.04108C19.0837 9.04108 18.5615 9.56345 18.5615 10.2067C18.5615 10.8499 19.0837 11.3723 19.7268 11.3723Z" fill="white"></path></g></g></svg>