<svg width="36" height="36" viewBox="0 0 36 36" fill="none" xmlns="http://www.w3.org/2000/svg"><path d="M5.57227 5.14062V11.5692H12.0008" stroke="#111111" stroke-width="2" stroke-linecap="round" stroke-linejoin="round"></path><path d="M6.42871 11.5541L8.89815 9.08663C10.9695 7.01876 13.6568 5.68009 16.5552 5.27231C19.4535 4.86453 22.4059 5.40973 24.9674 6.82578C27.5289 8.24182 29.5609 10.452 30.7571 13.1233C31.9533 15.7946 32.2489 18.7823 31.5995 21.6362C30.95 24.4901 29.3907 27.0556 27.1563 28.9463C24.922 30.8369 22.1338 31.9502 19.2117 32.1183C17.7883 32.2003 16.3707 32.0558 15.0093 31.6985" stroke="#111111" stroke-width="2" stroke-linecap="round" stroke-linejoin="round"></path><circle cx="8.99958" cy="29.5748" r="1.28571" fill="#111111"></circle><circle cx="5.57185" cy="25.7154" r="1.28571" fill="#111111"></circle><circle cx="3.857" cy="21.2154" r="1.28571" fill="#111111"></circle><circle cx="4.28669" cy="16.7154" r="1.28571" fill="#111111"></circle><path d="M18 11.5703V18.8618H25.0714" stroke="var(--iconColor, #111)" stroke-width="2" stroke-linecap="round" stroke-linejoin="round"></path></svg>