<svg width="16" height="16" viewBox="0 0 16 16" fill="none" xmlns="http://www.w3.org/2000/svg"><path d="M8.62118 0.402738L10.5827 4.53221C10.6273 4.63703 10.6975 4.72781 10.7863 4.79553C10.875 4.86325 10.9792 4.90552 11.0885 4.91815L15.4187 5.5871C15.5441 5.6039 15.6623 5.65756 15.7596 5.7418C15.8568 5.82604 15.929 5.93739 15.9678 6.06284C16.0066 6.18829 16.0104 6.32267 15.9787 6.45027C15.947 6.57788 15.8812 6.69345 15.7888 6.78349L12.6676 10.0125C12.588 10.0901 12.5282 10.1872 12.4937 10.2951C12.4592 10.4029 12.4512 10.518 12.4703 10.6299L13.2228 15.1711C13.2446 15.3016 13.2308 15.4358 13.183 15.5585C13.1353 15.6813 13.0554 15.7875 12.9526 15.8653C12.8498 15.943 12.7281 15.9891 12.6014 15.9983C12.4747 16.0075 12.348 15.9794 12.2359 15.9172L8.33744 13.7689C8.23761 13.7178 8.12789 13.6912 8.01668 13.6912C7.90548 13.6912 7.79575 13.7178 7.69593 13.7689L3.79751 15.9172C3.68535 15.9794 3.55871 16.0075 3.432 15.9983C3.30529 15.9891 3.18359 15.943 3.08076 15.8653C2.97792 15.7875 2.89808 15.6813 2.85032 15.5585C2.80255 15.4358 2.78878 15.3016 2.81056 15.1711L3.56311 10.5785C3.58218 10.4666 3.57411 10.3514 3.53964 10.2436C3.50516 10.1357 3.44538 10.0386 3.36572 9.961L0.207507 6.78349C0.114071 6.69099 0.0483625 6.57222 0.01834 6.44157C-0.0116826 6.31092 -0.0047305 6.174 0.0383539 6.04738C0.0814384 5.92077 0.158807 5.8099 0.261087 5.72821C0.363367 5.64651 0.48617 5.59749 0.61462 5.5871L4.94483 4.91815C5.05413 4.90552 5.15835 4.86325 5.24709 4.79553C5.33584 4.72781 5.40602 4.63703 5.45063 4.53221L7.41218 0.402738C7.4656 0.282467 7.5509 0.180641 7.65801 0.10928C7.76512 0.0379185 7.88957 0 8.01668 0C8.14379 0 8.26824 0.0379185 8.37536 0.10928C8.48247 0.180641 8.56777 0.282467 8.62118 0.402738Z" fill="var(--iconColor, #ddd)"></path></svg>