<svg width="21" height="12" viewBox="0 0 21 12" fill="none" xmlns="http://www.w3.org/2000/svg"><path d="M1.5 5.25C1.08579 5.25 0.75 5.58579 0.75 6C0.75 6.41421 1.08579 6.75 1.5 6.75L1.5 5.25ZM20.0303 6.53033C20.3232 6.23744 20.3232 5.76256 20.0303 5.46967L15.2574 0.696698C14.9645 0.403805 14.4896 0.403805 14.1967 0.696698C13.9038 0.989591 13.9038 1.46447 14.1967 1.75736L18.4393 6L14.1967 10.2426C13.9038 10.5355 13.9038 11.0104 14.1967 11.3033C14.4896 11.5962 14.9645 11.5962 15.2574 11.3033L20.0303 6.53033ZM1.5 6.75L19.5 6.75L19.5 5.25L1.5 5.25L1.5 6.75Z" fill="var(--iconColor, #111)"></path></svg>