<svg width="98" height="74" viewBox="0 0 98 74" fill="none" xmlns="http://www.w3.org/2000/svg"><path d="M33.9692 62.7308H41.0054V62.042H35.1172C34.9204 62.042 34.7728 61.8779 34.7728 61.6975V58.4008H40.8742V57.7119H33.2803V62.042C33.2803 62.4192 33.5919 62.7308 33.9692 62.7308ZM32.4766 64.5842V65.2731H41.8255V64.5842H32.4766Z" fill="var(--logoColor, #005E3C)"></path><path d="M24.8322 60.4704C26.4887 60.4704 27.4892 59.634 27.4892 58.6171C27.4892 57.6002 26.4887 56.7637 24.8322 56.7637C23.1756 56.7637 22.1915 57.6002 22.1915 58.6171C22.1915 59.634 23.1756 60.4704 24.8322 60.4704ZM24.8322 57.3213C25.5374 57.3213 26.0623 57.9118 26.0623 58.6499C26.0623 59.3879 25.5374 59.9784 24.8322 59.9784C24.1269 59.9784 23.602 59.3879 23.602 58.6499C23.602 57.9118 24.1269 57.3213 24.8322 57.3213ZM24.1597 62.5535H25.6522V61.4217H27.4564C27.9977 61.4217 28.7029 61.3397 29.0146 61.1921V62.373H30.5071V56.9769H29.0146V59.3879H27.6368V60.0604H29.0146V60.5361C28.6537 60.6673 27.9485 60.7329 27.522 60.7329H21.7322V61.4053H24.1433V62.5371L24.1597 62.5535ZM24.6517 65.8666C24.4549 65.8666 24.3565 65.7846 24.3565 65.5878V65.0629H30.5071V62.8815H22.8804V63.5704H29.031V64.374H22.8804V65.8666C22.8804 66.2438 23.192 66.5555 23.5692 66.5555H30.6384V65.8666H24.6517Z" fill="var(--logoColor, #005E3C)"></path><path d="M19.8308 56.9941H18.4038V66.5563H19.8308V56.9941Z" fill="var(--logoColor, #005E3C)"></path><path d="M12.9562 63.5384C12.7594 63.5384 12.6117 63.3908 12.6117 63.194V58.4211H15.2196V57.7322H11.1192V63.5384C11.1192 63.9156 11.4308 64.2273 11.8081 64.2273H14.99C15.4657 64.2273 15.7937 64.1781 16.1217 64.0633V66.5563H17.5487V56.9941H16.1217V60.4385H14.3339V61.2914H16.1217V63.3908C15.8265 63.4728 15.4985 63.522 14.99 63.522H12.9562V63.5384Z" fill="var(--logoColor, #005E3C)"></path><path d="M5.39616 62.0488V61.1139H8.54531V60.4251H2.55866C2.36184 60.4251 2.27986 60.3431 2.27986 60.1462V59.4738H8.43048V57.1611H0.803716V57.85H6.95434V58.7849H0.803716V60.4251C0.803716 60.8023 1.11532 61.1139 1.49256 61.1139H3.92002V62.0488H0V62.7377H9.34897V62.0488H5.39616ZM5.42895 63.1806H3.77241C3.32957 65.0011 1.18095 65.8376 0.393674 65.9524L0.803716 66.5593C1.6074 66.4609 3.44435 65.8704 4.60887 64.6075C5.75698 65.8704 7.61038 66.4609 8.41407 66.5593L8.82411 65.9524C8.03683 65.8376 5.87181 65.0011 5.44537 63.1806" fill="var(--logoColor, #005E3C)"></path><path d="M46.5331 62.2027C46.2215 62.2027 45.9919 62.1207 45.8443 61.9567C45.6967 61.7927 45.6146 61.5794 45.6146 61.317V57.2002H50.9288V62.2027H46.5331ZM47.0744 61.235C47.0744 61.235 47.0908 61.3826 47.1236 61.4154C47.1564 61.4646 47.222 61.481 47.3368 61.481H49.5182V57.9219H47.0744V61.235ZM48.6162 65.4994C48.6162 65.4994 48.6162 65.5814 48.6162 65.6307C48.6162 65.6799 48.6161 65.7127 48.6489 65.7455C48.6653 65.7783 48.7146 65.8111 48.7638 65.8275C48.813 65.8439 48.8786 65.8603 48.977 65.8603H54.5371V66.5819H47.8945C47.6977 66.5819 47.5664 66.5491 47.468 66.4999C47.3696 66.4343 47.304 66.3687 47.2548 66.2867C47.2056 66.2047 47.1728 66.1063 47.1728 65.9915C47.1728 65.8931 47.1728 65.7947 47.1728 65.6963V63.2852H48.6162V65.4994ZM52.815 56.8394H54.2747V63.7281H52.815V56.8394Z" fill="var(--logoColor, #005E3C)"></path><path d="M61.4247 60.3518V61.7459H65.7876V62.4512H55.9137V61.7459H59.9486V60.3518H61.4247ZM61.4903 57.0059V57.4815C61.4903 57.8423 61.6051 58.1704 61.8183 58.4656C62.0316 58.7608 62.3104 59.0233 62.6384 59.2529C62.9665 59.4825 63.3437 59.6793 63.7537 59.8269C64.1638 59.9746 64.5574 60.0894 64.9346 60.1386L64.5902 60.7126C64.377 60.7126 64.0818 60.6634 63.7374 60.5978C63.3765 60.5322 63.0157 60.4174 62.6384 60.2862C62.2612 60.155 61.9003 59.9746 61.5559 59.7613C61.2115 59.5481 60.9326 59.3021 60.7358 59.0069C60.5554 59.2693 60.3094 59.5153 59.9978 59.7121C59.6861 59.9254 59.3417 60.0894 58.9972 60.237C58.6364 60.3846 58.2756 60.4994 57.8984 60.5814C57.5211 60.6634 57.1767 60.7126 56.8815 60.729L56.537 60.155C56.9798 60.0894 57.3899 59.9582 57.8 59.8105C58.21 59.6465 58.5708 59.4497 58.8825 59.2201C59.1941 58.9905 59.4565 58.728 59.6369 58.4328C59.8174 58.1376 59.9157 57.8259 59.9157 57.4979V57.0223H61.5067L61.4903 57.0059ZM64.4426 63.3861V66.6828H63.0157V64.1078H56.8486V63.3861H64.4426Z" fill="var(--logoColor, #005E3C)"></path><path d="M67.6107 61.8583C67.3154 61.8583 67.1022 61.7927 66.9546 61.645C66.8234 61.4974 66.7414 61.3006 66.7414 61.0218V57.0526H68.1847V58.7255H70.563V57.0526H71.9735V61.8583H67.5779H67.6107ZM73.6137 63.7609H67.6107V63.0556H75.0735V66.6804H73.6137V63.7609ZM68.1847 60.8906C68.1847 60.8906 68.2011 61.0382 68.2339 61.071C68.2668 61.1202 68.3324 61.1366 68.4472 61.1366H70.563V59.4308H68.1847V60.8906ZM73.6137 56.8394H75.0735V58.988H76.7464V59.7096H75.0735V62.3995H73.6137V56.8394Z" fill="var(--logoColor, #005E3C)"></path><path d="M79.0752 66.6791C78.8784 66.6791 78.698 66.6135 78.5504 66.4823C78.4027 66.3511 78.3207 66.1707 78.3207 65.9575V64.3829H84.2089V63.53H78.3207V62.8083H81.2894V61.857H77.1398V61.1682H87.03V61.857H82.7984V62.8083H85.6687V65.0882H79.7805V65.6622C79.7805 65.777 79.7969 65.8427 79.8461 65.8919C79.8789 65.9411 79.9609 65.9575 80.0593 65.9575H85.8163V66.6791H79.0752ZM79.2392 60.3153C78.9276 60.3153 78.7144 60.2333 78.5668 60.0693C78.4192 59.9052 78.3371 59.692 78.3371 59.4296V57.0186H85.6851V60.3153H79.2392ZM79.7641 59.3476C79.7641 59.5116 79.8461 59.5936 80.0265 59.5936H84.2581V57.7238H79.7641V59.3312V59.3476Z" fill="var(--logoColor, #005E3C)"></path><path d="M94.9667 62.2154C94.655 62.2974 94.3762 62.3466 94.1137 62.363C93.8513 62.3794 93.5397 62.3958 93.1952 62.3958H87.6023V61.6741H89.4557V59.6075H90.8334V61.6741H93.2117C93.5397 61.6741 93.8349 61.6741 94.1137 61.6413C94.3926 61.6085 94.6714 61.5757 94.983 61.5101V56.8521H96.4428V60.0176H98.0009V60.7392H96.4428V63.9704H94.983V62.2318L94.9667 62.2154ZM88.0779 57.1965H93.7201V59.0991C93.7201 59.4927 93.6873 59.8536 93.6053 60.198C93.5233 60.5424 93.4084 60.8377 93.228 61.1001H91.9979C92.0635 60.8869 92.1292 60.6244 92.1948 60.2964C92.2604 59.9684 92.2768 59.5911 92.2768 59.1483V57.9346H88.0779V57.2129V57.1965ZM90.6366 65.5285C90.6366 65.6269 90.653 65.6926 90.7022 65.7582C90.735 65.8238 90.8334 65.8566 90.981 65.8566H96.5904V66.5782H90.0133C89.7509 66.5782 89.5541 66.4962 89.4065 66.3322C89.2588 66.1682 89.1932 65.9714 89.1932 65.7254V63.4455H90.6366V65.5449V65.5285Z" fill="var(--logoColor, #005E3C)"></path><path d="M52.1735 71.1241H54.4698V71.5669H52.1735V73.3711H51.0746V70.1236C51.0746 70.0088 51.0746 69.9104 51.1074 69.8283C51.1402 69.7463 51.173 69.6971 51.2222 69.6643C51.2714 69.6315 51.3206 69.5987 51.3862 69.5823C51.4518 69.5823 51.5174 69.5659 51.5831 69.5659H54.5025V70.0252H52.5015C52.5015 70.0252 52.3867 70.0252 52.3539 70.0252C52.3047 70.0252 52.2719 70.0416 52.2555 70.058C52.2227 70.0744 52.2063 70.1072 52.2063 70.14C52.2063 70.1892 52.2063 70.2384 52.2063 70.304V71.1077L52.1735 71.1241Z" fill="var(--logoColor, #005E3C)"></path><path d="M59.422 71.466C59.422 71.7449 59.3728 72.0073 59.2744 72.2533C59.176 72.4993 59.0284 72.729 58.848 72.9094C58.6512 73.1062 58.4215 73.2538 58.1427 73.3686C57.8639 73.4834 57.5522 73.5326 57.1914 73.5326C56.8306 73.5326 56.5025 73.4834 56.2237 73.3686C55.9449 73.2538 55.7153 73.1062 55.5184 72.9094C55.338 72.7126 55.1904 72.4993 55.092 72.2533C54.9936 72.0073 54.9444 71.7449 54.9444 71.466C54.9444 71.1872 54.9936 70.9248 55.0756 70.6787C55.1576 70.4327 55.3052 70.2031 55.4857 70.0227C55.6661 69.8259 55.8957 69.6782 56.1745 69.5634C56.4533 69.4486 56.7814 69.3994 57.1586 69.3994C57.5358 69.3994 57.8639 69.4486 58.1427 69.5634C58.4215 69.6782 58.6511 69.8259 58.8316 70.0227C59.012 70.2195 59.1596 70.4327 59.2416 70.6787C59.34 70.9248 59.3728 71.1872 59.3728 71.466H59.422ZM57.2078 69.8259C57.0438 69.8259 56.8798 69.8751 56.7486 69.9571C56.601 70.0391 56.4861 70.1703 56.3877 70.3179C56.2893 70.4655 56.2073 70.6459 56.1581 70.8428C56.1089 71.0396 56.0761 71.2528 56.0761 71.4824C56.0761 71.7121 56.1089 71.9253 56.1581 72.1221C56.2073 72.3189 56.2893 72.4993 56.3877 72.6469C56.4861 72.7946 56.6174 72.9094 56.7486 72.9914C56.8962 73.0734 57.0438 73.1226 57.2078 73.1226C57.3718 73.1226 57.5358 73.0734 57.6671 72.9914C57.8147 72.9094 57.9295 72.7946 58.0279 72.6469C58.1263 72.4993 58.2083 72.3189 58.2575 72.1221C58.3067 71.9253 58.3395 71.7121 58.3395 71.4824C58.3395 71.2528 58.3067 71.0396 58.2575 70.8428C58.2083 70.6459 58.1263 70.4655 58.0279 70.3179C57.9295 70.1703 57.8147 70.0555 57.6671 69.9571C57.5194 69.8751 57.3718 69.8259 57.2078 69.8259Z" fill="var(--logoColor, #005E3C)"></path><path d="M61.1784 72.6462C61.1784 72.6462 61.1784 72.7938 61.2112 72.843C61.244 72.8922 61.2933 72.9086 61.3917 72.9086H63.245V73.3679H60.5388C60.3911 73.3679 60.2763 73.3187 60.1943 73.2531C60.1123 73.1711 60.0795 73.0399 60.0795 72.8758V69.5791H61.1784V72.6626V72.6462Z" fill="var(--logoColor, #005E3C)"></path><path d="M66.2621 73.3711L65.0647 71.7801L64.7695 72.059V73.3711H63.6706V69.5659H64.7695V71.2061L66.4589 69.5659H67.361L65.8192 71.1077L67.5414 73.3711H66.2621Z" fill="var(--logoColor, #005E3C)"></path><path d="M71.2964 73.3711C71.2964 73.3711 71.2308 73.3711 71.198 73.3711C71.1652 73.3711 71.1324 73.3711 71.0996 73.3383C71.0668 73.3219 71.034 73.2891 71.0012 73.2399C70.9684 73.1907 70.9356 73.1251 70.9028 73.0431L69.9679 70.55V73.3711H69.3119V69.894C69.3119 69.8119 69.3446 69.7299 69.3938 69.6643C69.443 69.5987 69.5251 69.5659 69.6563 69.5659H70.3616C70.4764 69.5659 70.5748 69.5987 70.6404 69.6643C70.7224 69.7299 70.7716 69.7955 70.8044 69.894L71.5589 72.059L72.379 69.894C72.4118 69.8119 72.461 69.7299 72.543 69.6643C72.6086 69.5987 72.707 69.5659 72.8218 69.5659H73.5763C73.6911 69.5659 73.7731 69.5987 73.8223 69.6643C73.8715 69.7299 73.9043 69.7955 73.9043 69.894V73.3711H72.8054V70.4844L71.8213 73.0923C71.8213 73.0923 71.7721 73.2235 71.7393 73.2563C71.7065 73.2891 71.6737 73.3219 71.6573 73.3383C71.6245 73.3547 71.5917 73.3711 71.5589 73.3711C71.5261 73.3711 71.4933 73.3711 71.4605 73.3711H71.3129H71.2964Z" fill="var(--logoColor, #005E3C)"></path><path d="M75.6292 69.5659V72.0754C75.6292 72.2394 75.6456 72.387 75.6948 72.5182C75.744 72.6494 75.8096 72.7478 75.8916 72.8298C75.9737 72.9119 76.072 72.9775 76.1704 73.0103C76.2853 73.0431 76.4001 73.0759 76.5149 73.0759C76.6297 73.0759 76.7609 73.0595 76.8593 73.0103C76.9741 72.9611 77.0561 72.9119 77.1381 72.8298C77.2201 72.7478 77.2858 72.6494 77.335 72.5182C77.3842 72.387 77.4006 72.2558 77.4006 72.0754V69.5659H78.4995V71.9278C78.4995 72.1738 78.4503 72.387 78.3683 72.5838C78.2699 72.7806 78.1387 72.9447 77.9746 73.0923C77.7942 73.2399 77.5974 73.3383 77.3514 73.4203C77.1053 73.5023 76.8265 73.5351 76.5149 73.5351C76.2033 73.5351 75.9244 73.5023 75.6784 73.4203C75.4324 73.3383 75.2192 73.2399 75.0551 73.0923C74.8911 72.9447 74.7599 72.7806 74.6615 72.5838C74.5631 72.387 74.5303 72.1738 74.5303 71.9278V69.5659H75.6292Z" fill="var(--logoColor, #005E3C)"></path><path d="M82.0751 70.5348C82.0751 70.42 82.0423 70.3216 81.9931 70.256C81.9439 70.174 81.8782 70.1248 81.7962 70.0756C81.7142 70.0264 81.6486 69.9936 81.5502 69.9608C81.4682 69.928 81.3862 69.9116 81.3042 69.8952C81.2222 69.8952 81.1566 69.8788 81.0909 69.8788C81.0253 69.8788 80.9926 69.8788 80.9598 69.8788C80.927 69.8788 80.8613 69.8788 80.7793 69.8952C80.6973 69.9116 80.5989 69.9444 80.5005 69.9772C80.4021 70.01 80.3201 70.0756 80.2381 70.1412C80.1561 70.2232 80.1233 70.3052 80.1233 70.4364C80.1233 70.5184 80.1397 70.584 80.1889 70.6496C80.2381 70.6989 80.3037 70.7481 80.4021 70.7973C80.5005 70.8301 80.6481 70.8793 80.8121 70.9121C80.9762 70.9449 81.1894 70.9777 81.4518 71.0105C81.7142 71.0433 81.9602 71.0925 82.1735 71.1581C82.3867 71.2237 82.5671 71.2893 82.7147 71.3877C82.8624 71.4861 82.9772 71.5845 83.0592 71.7158C83.1412 71.847 83.174 71.9946 83.1904 72.1586C83.1904 72.2406 83.1904 72.339 83.174 72.4374C83.174 72.5358 83.1248 72.6342 83.0756 72.7491C83.0264 72.8475 82.9607 72.9459 82.8787 73.0443C82.7967 73.1427 82.6819 73.2247 82.5343 73.2903C82.3867 73.3723 82.2227 73.4215 82.0259 73.4707C81.829 73.5199 81.5994 73.5527 81.3206 73.5527C81.173 73.5527 81.0254 73.5527 80.8613 73.5527C80.6973 73.5527 80.5333 73.5199 80.3857 73.4871C80.2217 73.4543 80.0741 73.4051 79.9264 73.3395C79.7788 73.2739 79.6312 73.1919 79.5164 73.0935C79.4016 72.9951 79.2868 72.8639 79.2048 72.7327C79.1228 72.585 79.0735 72.421 79.0407 72.2242H80.0413C80.0577 72.3882 80.1233 72.5194 80.2053 72.6342C80.2873 72.7491 80.3857 72.8311 80.5005 72.9131C80.6153 72.9787 80.7301 73.0279 80.8777 73.0607C81.0089 73.0935 81.1565 73.1099 81.2878 73.0935C81.6158 73.0935 81.8455 73.0279 81.9931 72.9131C82.1407 72.8147 82.2062 72.6835 82.2062 72.5522C82.2062 72.421 82.1571 72.3062 82.0751 72.2242C81.993 72.1422 81.8782 72.0766 81.747 72.0274C81.6158 71.9782 81.4846 71.9454 81.3206 71.929C81.173 71.9126 81.0253 71.8798 80.8941 71.8634C80.8121 71.8634 80.6973 71.847 80.5825 71.8142C80.4677 71.7978 80.3365 71.765 80.2053 71.7322C80.0741 71.6994 79.9428 71.6501 79.8116 71.6009C79.6804 71.5517 79.5656 71.4861 79.4672 71.4041C79.3688 71.3221 79.2704 71.2237 79.2048 71.1089C79.1392 70.9941 79.1063 70.8629 79.0899 70.7153C79.0899 70.4856 79.1391 70.2724 79.2375 70.1084C79.3524 69.9444 79.4836 69.7968 79.664 69.6983C79.8444 69.5835 80.0413 69.5179 80.2545 69.4687C80.4841 69.4195 80.6973 69.3867 80.9269 69.3867C81.0417 69.3867 81.173 69.3867 81.3206 69.3867C81.4682 69.3867 81.6158 69.4195 81.7634 69.4359C81.911 69.4687 82.0586 69.5015 82.2062 69.5507C82.3539 69.5999 82.4851 69.6655 82.5999 69.7476C82.7147 69.8296 82.8131 69.928 82.8951 70.0428C82.9771 70.1576 83.0264 70.3052 83.0592 70.4692H82.0423L82.0751 70.5348Z" fill="var(--logoColor, #005E3C)"></path><path d="M87.0926 71.1241V71.5669H84.8455V72.633C84.8455 72.633 84.8455 72.6986 84.8455 72.7314C84.8455 72.7642 84.8455 72.797 84.8783 72.8134C84.8947 72.8299 84.9276 72.8627 84.9604 72.8627C84.9932 72.8627 85.0424 72.8791 85.108 72.8791H87.1253V73.3383H84.3043C84.3043 73.3383 84.1567 73.3383 84.0911 73.3383C84.0255 73.3383 83.9598 73.3055 83.9106 73.2727C83.8614 73.2399 83.8286 73.1743 83.7958 73.1087C83.763 73.0431 83.7466 72.9283 83.7466 72.8134V70.1072C83.7466 69.9924 83.7466 69.8939 83.7958 69.8119C83.8286 69.7463 83.8614 69.6807 83.9106 69.6479C83.9598 69.6151 84.0091 69.5823 84.0747 69.5659C84.1403 69.5659 84.2059 69.5659 84.2715 69.5659H87.1253V70.0252H85.1408C85.0423 70.0252 84.9767 70.0252 84.9275 70.0744C84.8783 70.1072 84.862 70.1728 84.862 70.304V71.1241H87.109H87.0926Z" fill="var(--logoColor, #005E3C)"></path><path d="M88.7665 69.5659V72.0754C88.7665 72.2394 88.7829 72.387 88.8321 72.5182C88.8813 72.6494 88.9469 72.7478 89.0289 72.8298C89.111 72.9119 89.2094 72.9775 89.3078 73.0103C89.4226 73.0431 89.5374 73.0759 89.6522 73.0759C89.767 73.0759 89.8982 73.0595 89.9966 73.0103C90.1115 72.9611 90.1935 72.9119 90.2755 72.8298C90.3575 72.7478 90.4231 72.6494 90.4723 72.5182C90.5215 72.387 90.5379 72.2558 90.5379 72.0754V69.5659H91.6368V71.9278C91.6368 72.1738 91.5876 72.387 91.5056 72.5838C91.4072 72.7806 91.276 72.9447 91.112 73.0923C90.9316 73.2399 90.7347 73.3383 90.4887 73.4203C90.2427 73.5023 89.9639 73.5351 89.6522 73.5351C89.3406 73.5351 89.0618 73.5023 88.8158 73.4203C88.5697 73.3383 88.3565 73.2399 88.1925 73.0923C88.0285 72.9447 87.8972 72.7806 87.7988 72.5838C87.7004 72.387 87.6676 72.1738 87.6676 71.9278V69.5659H88.7665Z" fill="var(--logoColor, #005E3C)"></path><path d="M94.3265 73.3711C94.3265 73.3711 94.2444 73.3711 94.2116 73.3711C94.1788 73.3711 94.146 73.3711 94.1132 73.3383C94.0804 73.3219 94.0476 73.2891 94.0148 73.2399C93.982 73.1907 93.9492 73.1251 93.9164 73.0431L92.9815 70.55V73.3711H92.3255V69.894C92.3255 69.8119 92.3582 69.7299 92.4074 69.6643C92.4566 69.5987 92.5551 69.5659 92.6699 69.5659H93.3752C93.49 69.5659 93.5884 69.5987 93.654 69.6643C93.736 69.7299 93.7852 69.7955 93.818 69.894L94.5725 72.059L95.3926 69.894C95.4254 69.8119 95.4746 69.7299 95.5566 69.6643C95.6222 69.5987 95.7206 69.5659 95.8354 69.5659H96.5899C96.7047 69.5659 96.7867 69.5987 96.8359 69.6643C96.8851 69.7299 96.9179 69.7955 96.9179 69.894V73.3711H95.819V70.4844L94.8349 73.0923C94.8349 73.0923 94.7857 73.2235 94.7529 73.2563C94.7201 73.2891 94.6873 73.3219 94.6709 73.3383C94.6381 73.3547 94.6053 73.3711 94.5725 73.3711C94.5397 73.3711 94.5069 73.3711 94.4741 73.3711H94.3265Z" fill="var(--logoColor, #005E3C)"></path><path d="M37.9208 72.1975C37.7404 71.8367 37.5928 71.5906 37.1992 71.5414C37.6912 71.443 38.0356 71.0658 38.0356 70.5737C38.0356 69.9833 37.6092 69.4912 36.5923 69.4912H34.8209C34.5749 69.4912 34.3945 69.688 34.3945 69.9341V73.2636H35.4442V71.6726H35.9526C36.3791 71.6726 36.6251 71.9023 36.7891 72.1975L37.2976 73.2636H38.4457L37.9208 72.1811V72.1975ZM36.2806 71.2462H35.4606V70.1637C35.4606 70.0325 35.559 69.9341 35.6902 69.9341H36.3135C36.7399 69.9341 36.9695 70.2457 36.9695 70.5737C36.9695 70.9018 36.7235 71.2298 36.2971 71.2298L36.2806 71.2462Z" fill="var(--logoColor, #005E3C)"></path><path d="M44.3178 69.4912H42.4479V73.28H44.3178C45.8103 73.28 46.4992 72.5255 46.4992 71.3938C46.4992 70.2621 45.8103 69.5076 44.3178 69.5076V69.4912ZM44.2521 72.8372H43.4977V69.9505H44.2521C44.9574 69.9505 45.3674 70.5081 45.3674 71.3938C45.3674 72.2795 44.9574 72.8372 44.2521 72.8372Z" fill="var(--logoColor, #005E3C)"></path><path d="M31.4599 69.3374C30.0165 69.3374 29.1472 70.2559 29.1472 71.3876C29.1472 72.5193 30.0165 73.4378 31.4599 73.4378C32.9032 73.4378 33.7724 72.5193 33.7724 71.3876C33.7724 70.2559 32.9032 69.3374 31.4599 69.3374ZM31.4599 72.995C30.771 72.995 30.2297 72.2733 30.2297 71.3876C30.2297 70.5019 30.7546 69.7802 31.4599 69.7802C32.1651 69.7802 32.69 70.5019 32.69 71.3876C32.69 72.2733 32.1651 72.995 31.4599 72.995Z" fill="var(--logoColor, #005E3C)"></path><path d="M40.0219 69.4817H38.9722V72.8113C38.9722 73.0573 39.169 73.2541 39.415 73.2541H41.9737V72.8113H40.2351C40.1039 72.8113 40.0055 72.7129 40.0055 72.5816V69.4653L40.0219 69.4817Z" fill="var(--logoColor, #005E3C)"></path><path d="M28.3101 69.4912L27.5064 72.4763L26.6372 69.4912H25.8663L25.0298 72.4763L24.1605 69.4912H23.16L24.1933 72.9684C24.2589 73.1652 24.3573 73.2636 24.5377 73.2636H25.1118C25.2922 73.2636 25.407 73.1652 25.4726 72.9684L26.0467 70.9346L26.6535 72.9684C26.7191 73.1652 26.834 73.2636 26.998 73.2636H27.572C27.7524 73.2636 27.8673 73.1652 27.9165 72.9684L28.9005 69.4912H28.2773H28.3101Z" fill="var(--logoColor, #005E3C)"></path><path d="M6.22932 69.3374C4.73677 69.3374 3.85106 70.2559 3.85106 71.3876C3.85106 72.5193 4.73677 73.4378 6.22932 73.4378C7.72187 73.4378 8.60753 72.5193 8.60753 71.3876C8.60753 70.2559 7.72187 69.3374 6.22932 69.3374ZM6.22932 73.0114C5.52405 73.0114 4.98277 72.2897 4.98277 71.404C4.98277 70.5183 5.52405 69.7966 6.22932 69.7966C6.93459 69.7966 7.47581 70.5183 7.47581 71.404C7.47581 72.2897 6.93459 73.0114 6.22932 73.0114Z" fill="var(--logoColor, #005E3C)"></path><path d="M8.8068 69.9505H10.3814V73.28H11.5459V69.9505H12.8744V69.4912H8.8068V69.9505Z" fill="var(--logoColor, #005E3C)"></path><path d="M13.3012 69.9505H14.6298V73.28H15.7943V69.9505H17.3688V69.4912H13.3012V69.9505Z" fill="var(--logoColor, #005E3C)"></path><path d="M1.50703 72.6038V69.5039H0.375311V72.8335C0.375311 73.0795 0.572113 73.2763 0.818138 73.2763H3.70485V72.817H1.72026C1.58905 72.817 1.49061 72.7186 1.49061 72.5874L1.50703 72.6038Z" fill="var(--logoColor, #005E3C)"></path><path d="M18.0071 69.9505V72.8372C18.0071 73.0832 18.2039 73.28 18.4499 73.28H21.5335V72.8372H19.3521C19.2208 72.8372 19.1224 72.7387 19.1224 72.6075V71.4922H21.4843V71.0494H19.1224V70.1637C19.1224 70.0325 19.2208 69.9341 19.3521 69.9341H21.5335V69.4912H18.4499C18.2039 69.4912 18.0071 69.688 18.0071 69.9341V69.9505Z" fill="var(--logoColor, #005E3C)"></path><path d="M55.1273 20.0427C57.4564 21.6828 59.8674 20.4199 59.8674 20.4199C58.2928 23.8315 53.4872 23.7002 53.4872 23.7002H44.4334C38.5452 23.7002 37.6759 20.4691 37.6759 20.4691C40.579 21.6008 42.7277 19.5834 42.7277 19.5834C46.5821 16.2211 48.6651 13.0063 48.6651 13.0063C51.6338 17.1888 55.1109 20.0263 55.1109 20.0263L55.1273 20.0427ZM48.6979 15.5322C48.6979 15.5322 45.4011 19.1078 44.1382 20.2559C44.1382 20.2559 42.4488 21.9453 40.9727 21.732C40.9727 21.732 41.5959 22.3553 44.4334 22.3553H53.0443C53.0443 22.3553 55.4061 22.3553 56.2918 21.732C56.2918 21.732 54.3892 21.3876 52.5031 19.5014C52.5031 19.5014 50.01 17.1888 48.7143 15.5486L48.6979 15.5322Z" fill="var(--logoColor, #00643D)"></path><path d="M26.9822 14.52C26.9822 14.52 27.917 15.1924 26.2605 17.4723C26.2605 17.4723 23.095 21.9007 18.1253 20.3918C18.1253 20.3918 19.2406 23.7541 24.4235 23.7541H38.0369L37.9385 22.36H23.9314C23.9314 22.36 21.75 22.4584 21.2744 21.5727C21.2744 21.5727 22.0616 21.9499 24.8007 20.6542C24.8007 20.6542 26.8181 19.9161 28.4255 16.8982C28.4255 16.8982 28.9668 17.5707 30.7382 17.5707H44.1055V16.1109H30.7382C30.7382 16.1109 28.9503 16.1601 28.3927 15.1924C28.3927 15.1924 28.0811 14.3396 26.9822 14.5528V14.52Z" fill="var(--logoColor, #00643D)"></path><path d="M70.3812 14.52C70.3812 14.52 69.4463 15.1924 71.0865 17.4723C71.0865 17.4723 74.252 21.9007 79.2218 20.3918C79.2218 20.3918 78.1228 23.7541 72.9235 23.7541H59.3101L59.4085 22.36H73.4155C73.4155 22.36 75.5806 22.4584 76.0726 21.5727C76.0726 21.5727 75.2689 21.9499 72.5463 20.6542C72.5463 20.6542 70.5289 19.9161 68.9215 16.8982C68.9215 16.8982 68.3802 17.5707 66.6089 17.5707H53.2415V16.1109H66.6089C66.6089 16.1109 68.3966 16.1601 68.9543 15.1924C68.9543 15.1924 69.2659 14.3396 70.3649 14.5528L70.3812 14.52Z" fill="var(--logoColor, #00643D)"></path><path d="M62.984 11.8867H68.6261C66.1003 7.95026 62.4427 4.81754 58.1127 2.94775L56.3905 7.09738C58.9328 8.21269 61.1798 9.85286 63.0004 11.8867H62.984Z" fill="var(--logoColor, #45B035)"></path><path d="M48.7301 5.51046C51.2068 5.51046 53.5686 5.98611 55.7336 6.839L57.4558 2.67297C54.7495 1.59046 51.8137 1 48.7301 1C45.6466 1 42.7107 1.59046 40.0209 2.65657L41.743 6.82259C43.908 5.96971 46.2699 5.49406 48.7301 5.49406V5.51046Z" fill="var(--logoColor, #45B035)"></path><path d="M41.0865 7.09738L39.3642 2.94775C35.0342 4.81754 31.3603 7.95026 28.8344 11.8867H34.4766C36.2972 9.85286 38.5442 8.21269 41.0865 7.09738Z" fill="var(--logoColor, #45B035)"></path><path d="M56.3745 42.2026L58.0967 46.3686C62.4431 44.4988 66.1007 41.3497 68.6265 37.4297H62.9844C61.1638 39.4635 58.9167 41.1037 56.3745 42.219V42.2026Z" fill="var(--logoColor, #45B035)"></path><path d="M48.7305 43.7939C46.2539 43.7939 43.892 43.3182 41.727 42.4653L40.0048 46.615C42.7111 47.6975 45.647 48.2879 48.7305 48.2879C51.8141 48.2879 54.7499 47.6975 57.4562 46.6314L55.734 42.4653C53.569 43.3182 51.2072 43.7939 48.7469 43.7939H48.7305Z" fill="var(--logoColor, #45B035)"></path><path d="M34.4766 37.417H28.8344C31.3603 41.3534 35.0178 44.4861 39.3479 46.3559L41.07 42.2063C38.5278 41.091 36.2808 39.4508 34.4602 37.417H34.4766Z" fill="var(--logoColor, #45B035)"></path><path d="M66.5583 11.8884H68.6248C66.8535 9.11651 64.508 6.75467 61.7689 4.93408L60.8177 6.36103C63.0483 7.83718 65.0001 9.72337 66.5583 11.8884Z" fill="var(--logoColor, #007F41)"></path><path d="M48.7299 2.71847C50.288 2.71847 51.797 2.88249 53.2567 3.19412L53.6012 1.52115C52.0266 1.19311 50.4029 1.0127 48.7299 1.0127C47.0569 1.0127 45.4332 1.19311 43.8586 1.52115L44.2194 3.19412C45.6792 2.88249 47.1881 2.71847 48.7463 2.71847H48.7299Z" fill="var(--logoColor, #007F41)"></path><path d="M28.8344 11.8884H30.901C32.4591 9.70697 34.4109 7.83718 36.6416 6.36103L35.7067 4.93408C32.9676 6.75467 30.6222 9.11651 28.8508 11.8884H28.8344Z" fill="var(--logoColor, #007F41)"></path><path d="M68.6248 37.417H66.5583C65.0001 39.5984 63.0647 41.4682 60.8177 42.9444L61.7689 44.3713C64.508 42.5507 66.8535 40.1889 68.6248 37.417Z" fill="var(--logoColor, #007F41)"></path><path d="M48.7303 46.5801C47.1721 46.5801 45.6632 46.4161 44.2034 46.1045L43.8426 47.7775C45.4171 48.1055 47.0409 48.2859 48.7139 48.2859C50.3868 48.2859 52.0106 48.1055 53.5852 47.7775L53.2408 46.1045C51.781 46.3997 50.272 46.5801 48.7139 46.5801H48.7303Z" fill="var(--logoColor, #007F41)"></path><path d="M30.901 37.417H28.8344C30.6058 40.1889 32.9512 42.5507 35.6903 44.3713L36.6252 42.9444C34.3946 41.4682 32.4428 39.5984 30.8846 37.417H30.901Z" fill="var(--logoColor, #007F41)"></path><path d="M38.2511 12.7656C39.6289 12.864 40.531 11.9127 40.7278 11.4698C40.9246 11.0434 41.3511 10.945 41.6463 11.3058C41.9415 11.6667 42.204 11.6011 42.204 11.6011H54.8825C54.8825 11.6011 55.1449 11.6667 55.4401 11.3058C55.7353 10.945 56.1618 11.0434 56.3586 11.4698C56.5554 11.8963 57.4411 12.864 58.8352 12.7656C58.8352 12.7656 59.2617 12.9952 59.2289 13.356C59.1961 13.7169 58.8681 13.7497 58.6713 13.7497C58.4744 13.7497 56.949 13.8153 55.7681 12.6672H41.3019C40.121 13.8153 38.5956 13.7497 38.3988 13.7497C38.2019 13.7497 37.8739 13.7169 37.8411 13.356C37.8083 12.9952 38.2347 12.7656 38.2347 12.7656H38.2511Z" fill="var(--logoColor, #005E3C)"></path><path d="M44.9903 23.0908H43.0385V30.488H44.9903V23.0908Z" fill="var(--logoColor, #005E3C)"></path><path d="M54.4725 23.0908H52.5207V30.488H54.4725V23.0908Z" fill="var(--logoColor, #005E3C)"></path><path d="M55.2925 31.292H42.1383V32.2761H55.2925V31.292Z" fill="var(--logoColor, #005E3C)"></path><path d="M57.8679 36.0972H39.6621V38.4426H57.8679V36.0972Z" fill="var(--logoColor, #005E3C)"></path><path d="M56.5039 33.3164H41.0043V34.8746H56.5039V33.3164Z" fill="var(--logoColor, #005E3C)"></path><path d="M74.0051 25.1147H72.6766V29.4448H74.0051V25.1147Z" fill="var(--logoColor, #005E3C)"></path><path d="M61.9017 25.8447H56.5055V27.4029H61.9017V25.8447Z" fill="var(--logoColor, #005E3C)"></path><path d="M60.5057 29.1382H57.8158V30.4667H60.5057V29.1382Z" fill="var(--logoColor, #005E3C)"></path><path d="M24.8001 25.1147H23.4715V29.4448H24.8001V25.1147Z" fill="var(--logoColor, #005E3C)"></path><path d="M40.9896 25.8447H35.5934V27.4029H40.9896V25.8447Z" fill="var(--logoColor, #005E3C)"></path><path d="M39.6448 29.1382H36.9549V30.4667H39.6448V29.1382Z" fill="var(--logoColor, #005E3C)"></path><path d="M39.7092 31.8804H21.0113V33.8814H39.7092V31.8804Z" fill="var(--logoColor, #005E3C)"></path><path d="M76.5297 31.8804H57.8318V33.8814H76.5297V31.8804Z" fill="var(--logoColor, #005E3C)"></path><path d="M68.51 29.1873H66.0006V23.3975H64.3604V30.4666H70.1174V23.3975H68.51V29.1873Z" fill="var(--logoColor, #005E3C)"></path><path d="M31.4741 29.1873H28.9483V23.3975H27.3573V30.4666H33.1143V23.3975H31.4741V29.1873Z" fill="var(--logoColor, #005E3C)"></path></svg>