<svg width="140" height="32" viewBox="0 0 140 32" fill="none" xmlns="http://www.w3.org/2000/svg">
<path d="M95.3578 19.992C95.3147 20.1411 95.2284 20.2476 95.1206 20.3221C95.0128 20.3967 94.8834 20.4286 94.7433 20.4286H93.8701C93.6976 20.4286 93.5574 20.3967 93.4604 20.3328C93.3634 20.2689 93.2771 20.1624 93.2125 20.0026L91.1318 14.1345L89.159 19.9813C89.0512 20.2795 88.8571 20.4286 88.566 20.4286H87.5634C87.3802 20.4286 87.24 20.3967 87.143 20.3328C87.046 20.2689 86.9705 20.1411 86.9058 19.9707L84.146 12.0684H86.8088L88.5984 17.8407L90.2262 12.7606C90.2909 12.5689 90.3879 12.3985 90.5281 12.2707C90.6682 12.1323 90.8731 12.0684 91.1318 12.0684H92.2099C92.4578 12.0684 92.6411 12.1323 92.7812 12.2601C92.9106 12.3879 93.0184 12.5476 93.0831 12.7393L94.7433 17.7661L96.5113 12.0684H97.8481L95.3578 19.992Z" fill="#ED1C24"/>
<path d="M108.866 16.2542C108.866 16.8506 108.747 17.4257 108.521 17.9795C108.295 18.5333 107.96 19.0125 107.518 19.4279C107.076 19.8432 106.537 20.1734 105.891 20.4183C105.244 20.6633 104.5 20.7911 103.67 20.7911C102.84 20.7911 102.064 20.6633 101.417 20.4183C100.77 20.1734 100.22 19.8432 99.7888 19.4279C99.3468 19.0125 99.0234 18.5333 98.8078 17.9795C98.5922 17.4257 98.4844 16.8506 98.4844 16.2542C98.4844 15.6578 98.5922 15.0827 98.797 14.5289C99.0126 13.9751 99.3253 13.4958 99.7565 13.0805C100.188 12.6651 100.727 12.335 101.384 12.09C102.042 11.8451 102.797 11.7173 103.681 11.7173C104.565 11.7173 105.319 11.8451 105.977 12.09C106.634 12.335 107.174 12.6651 107.605 13.0805C108.036 13.4958 108.359 13.9751 108.564 14.5289C108.78 15.0827 108.877 15.6578 108.877 16.2542H108.866ZM103.67 12.6438C103.271 12.6438 102.904 12.7397 102.581 12.9314C102.247 13.1231 101.966 13.3787 101.729 13.7088C101.492 14.039 101.309 14.4224 101.18 14.859C101.05 15.2957 100.985 15.7536 100.985 16.2542C100.985 16.7547 101.05 17.2127 101.18 17.6493C101.309 18.086 101.492 18.4694 101.729 18.7889C101.966 19.119 102.258 19.3746 102.581 19.5557C102.915 19.7474 103.271 19.8326 103.67 19.8326C104.069 19.8326 104.435 19.7367 104.759 19.5557C105.093 19.364 105.373 19.1084 105.61 18.7889C105.847 18.4587 106.031 18.086 106.16 17.6493C106.29 17.2127 106.354 16.7547 106.354 16.2542C106.354 15.7536 106.29 15.2957 106.16 14.859C106.031 14.4224 105.847 14.039 105.61 13.7088C105.373 13.3787 105.093 13.1231 104.759 12.9314C104.424 12.7397 104.069 12.6438 103.67 12.6438Z" fill="#ED1C24"/>
<path d="M117.242 20.4398C117.21 20.3227 117.178 20.2162 117.145 20.0884C117.113 19.9712 117.081 19.8328 117.059 19.6943C117.027 19.5452 117.005 19.3855 116.973 19.2044C116.941 19.0234 116.919 18.8104 116.897 18.5654C116.865 18.2459 116.768 17.9797 116.606 17.7773C116.445 17.575 116.24 17.4152 115.992 17.2981C115.744 17.1809 115.485 17.1064 115.183 17.0638C114.892 17.0212 114.601 16.9999 114.31 16.9999H113.038V20.4398H110.451V13.3043C110.451 13.0381 110.483 12.8144 110.548 12.6547C110.612 12.4949 110.709 12.3671 110.817 12.2819C110.925 12.1967 111.054 12.1435 111.195 12.1222C111.335 12.1009 111.486 12.0796 111.637 12.0796H116.013C116.844 12.0796 117.512 12.1541 118.019 12.3032C118.525 12.4523 118.924 12.6334 119.205 12.857C119.485 13.0807 119.668 13.3256 119.765 13.6025C119.862 13.8794 119.905 14.135 119.905 14.38C119.905 14.9657 119.722 15.4556 119.355 15.8497C118.989 16.2437 118.374 16.4993 117.534 16.5952C117.911 16.6378 118.213 16.7017 118.45 16.8188C118.687 16.9253 118.87 17.0744 119.01 17.2448C119.151 17.4259 119.258 17.6282 119.323 17.8519C119.388 18.0755 119.442 18.3311 119.474 18.5974C119.517 18.9808 119.56 19.3322 119.625 19.6517C119.69 19.9712 119.765 20.2375 119.873 20.4398H117.242ZM114.698 15.9988C115.593 15.9988 116.251 15.8816 116.693 15.658C117.124 15.4343 117.339 15.0403 117.339 14.4758C117.339 14.2841 117.307 14.1031 117.242 13.9327C117.178 13.7623 117.059 13.6132 116.887 13.4854C116.714 13.3576 116.499 13.2617 116.229 13.1872C115.96 13.1126 115.615 13.07 115.216 13.07H113.771C113.631 13.07 113.512 13.07 113.415 13.102C113.318 13.1233 113.243 13.1552 113.189 13.2191C113.135 13.283 113.092 13.3576 113.07 13.4641C113.049 13.5706 113.038 13.709 113.038 13.8688V15.9881H114.709L114.698 15.9988Z" fill="#ED1C24"/>
<path d="M124.444 18.853C124.444 19.0234 124.476 19.1618 124.541 19.2683C124.605 19.3748 124.746 19.4281 124.961 19.4281H129.306V20.4398H122.978C122.633 20.4398 122.352 20.3546 122.169 20.1736C121.975 19.9925 121.878 19.7156 121.878 19.3322V12.0796H124.444V18.853Z" fill="#ED1C24"/>
<path d="M135.116 12.0796C135.86 12.0796 136.529 12.1754 137.132 12.3671C137.736 12.5588 138.253 12.8357 138.674 13.1872C139.094 13.5386 139.418 13.9753 139.655 14.4865C139.881 14.9977 140 15.5834 140 16.2331C140 16.8188 139.881 17.362 139.633 17.8732C139.385 18.3844 139.04 18.8317 138.609 19.2044C138.167 19.5878 137.65 19.8861 137.057 20.0991C136.464 20.3227 135.817 20.4292 135.127 20.4292H131.225C130.847 20.4292 130.578 20.3334 130.405 20.1523C130.233 19.9606 130.146 19.6943 130.146 19.3322V13.1765C130.146 12.8144 130.233 12.5482 130.405 12.3565C130.578 12.1648 130.858 12.0796 131.225 12.0796H135.127H135.116ZM134.771 19.4387C135.116 19.4387 135.44 19.3535 135.752 19.1831C136.065 19.0127 136.345 18.7891 136.593 18.4909C136.841 18.2033 137.035 17.8625 137.186 17.4685C137.337 17.0744 137.402 16.6591 137.402 16.2224C137.402 15.7538 137.326 15.3278 137.186 14.9444C137.035 14.561 136.841 14.2309 136.593 13.954C136.345 13.6771 136.065 13.4641 135.752 13.3043C135.44 13.1552 135.106 13.07 134.771 13.07H133.424C133.284 13.07 133.165 13.07 133.068 13.0913C132.971 13.102 132.896 13.1339 132.842 13.1765C132.788 13.2191 132.745 13.283 132.723 13.3682C132.701 13.4534 132.691 13.5599 132.691 13.709V18.7571C132.691 18.9808 132.723 19.1512 132.777 19.2577C132.831 19.3748 133.003 19.4281 133.294 19.4281H134.782L134.771 19.4387Z" fill="#ED1C24"/>
<path d="M3.00832 11.3267L8.1005 6.29624C10.8677 3.5626 15.3576 3.57013 18.1171 6.29624L23.2093 11.3267C25.9765 14.0604 25.9688 18.496 23.2093 21.2221L18.1171 26.2526C15.35 28.9862 10.86 28.9787 8.1005 26.2526L3.00832 21.2221C0.241167 18.4884 0.241167 14.0604 3.00832 11.3267Z" fill="#ED1C24"/>
<path d="M10.094 23.665C9.69511 23.665 9.36092 23.3561 9.33936 22.9514C9.33936 22.749 9.40404 22.5573 9.53341 22.4189C9.67355 22.2698 9.85682 22.1846 10.0617 22.1846C10.4713 22.1633 10.8271 22.4828 10.8486 22.8982C10.8702 23.3029 10.5468 23.6543 10.1263 23.6756C10.1156 23.6756 10.1048 23.6756 10.094 23.6756V23.665Z" fill="white"/>
<path d="M12.8322 9.92793C12.4226 9.92793 12.0884 10.0557 11.8189 10.322C11.2367 10.8864 10.9349 12.0579 10.9672 13.6128C10.9995 15.5298 11.4631 19.2999 12.9939 21.2382C13.2419 21.5577 13.5114 21.8027 13.7917 21.9837C14.0612 22.1541 14.3631 22.3352 14.8374 22.3352C14.9668 22.3352 15.0962 22.3245 15.2471 22.2926C16.1203 22.0902 17.2199 21.1211 18.0393 19.8431C18.1686 19.6514 18.3735 19.5342 18.6106 19.5342C18.74 19.5342 18.8586 19.5662 18.9664 19.6407C19.1173 19.7366 19.2251 19.8857 19.2682 20.0561C19.3114 20.2265 19.2682 20.4075 19.182 20.5566C18.1471 22.1754 16.7887 23.315 15.5382 23.6025C15.5382 23.6025 15.5166 23.6025 15.5058 23.6025C15.2794 23.6451 15.053 23.6664 14.8374 23.6664C14.0289 23.6664 13.4575 23.3682 13.0586 23.102C12.6598 22.8357 12.2824 22.4949 11.9482 22.0583C9.79212 19.3319 9.65197 14.2092 9.64119 13.6341C9.61963 12.2709 9.81368 10.4285 10.8917 9.37413C11.42 8.86293 12.0776 8.59668 12.8538 8.59668H12.9832C13.7594 8.59668 14.417 8.86293 14.9452 9.37413C16.0233 10.4285 16.2173 12.2709 16.1958 13.6341C16.1742 15.0506 15.9047 17.7983 14.417 20.2691C14.2984 20.4714 14.072 20.5992 13.8348 20.5992C13.7162 20.5992 13.5977 20.5673 13.4899 20.5034C13.1664 20.3117 13.0694 19.907 13.2527 19.5875C14.2984 17.8622 14.7943 15.9665 14.8374 13.6128C14.8698 12.0579 14.5679 10.8864 13.9858 10.322C13.7162 10.0557 13.3928 9.92793 12.9724 9.92793H12.8538H12.8322Z" fill="white"/>
<path d="M44.5166 11.7388C41.1746 11.7388 39.1802 13.7836 39.1802 16.297C39.1802 18.8104 41.1746 20.8552 44.5166 20.8552C47.8585 20.8552 49.8529 18.8104 49.8529 16.297C49.8529 13.7836 47.8478 11.7388 44.5166 11.7388ZM44.5166 19.8754C42.921 19.8754 41.7028 18.2672 41.7028 16.297C41.7028 14.3267 42.921 12.7292 44.5166 12.7292C46.1121 12.7292 47.3303 14.3267 47.3303 16.297C47.3303 18.2672 46.1121 19.8754 44.5166 19.8754Z" fill="#ED1C24"/>
<path d="M50.3057 13.0918H53.8201V20.4723H56.4721V13.0918H59.4368V12.0801H50.3057V13.0918Z" fill="#ED1C24"/>
<path d="M60.3965 13.0918H63.3611V20.4723H66.0024V13.0918H69.5276V12.0801H60.3965V13.0918Z" fill="#ED1C24"/>
<path d="M33.9085 18.96V12.0801H31.3643V19.4712C31.3643 20.025 31.817 20.4723 32.3776 20.4723H38.8675V19.4605H34.4044C34.1241 19.4605 33.8977 19.2475 33.8977 18.96H33.9085Z" fill="#ED1C24"/>
<path d="M70.9614 13.0812V19.4712C70.9614 20.025 71.4142 20.4723 71.9748 20.4723H78.8959V19.4818H74.0123C73.732 19.4818 73.5056 19.2582 73.5056 18.9813V16.5105H78.8205V15.5307H73.5056V13.5711C73.5056 13.2942 73.732 13.0705 74.0123 13.0705H78.8959V12.0801H71.9748C71.425 12.0801 70.9614 12.5274 70.9614 13.0812Z" fill="#ED1C24"/>
</svg>
