<svg width="12" height="12" viewBox="0 0 12 12" fill="none" xmlns="http://www.w3.org/2000/svg"><g clip-path="url(#clip0_6594_40789)"><path d="M8.91304 3.09387C8.91304 3.86504 8.6067 4.60462 8.0614 5.14992C7.5161 5.69522 6.77652 6.00156 6.00535 6.00156C5.23418 6.00156 4.4946 5.69522 3.9493 5.14992C3.404 4.60462 3.09766 3.86504 3.09766 3.09387V0.601562H8.91304V3.09387Z" stroke="#111111" stroke-linecap="round" stroke-linejoin="round"></path><path d="M8.91304 8.90769C8.91304 8.13652 8.6067 7.39694 8.0614 6.85164C7.5161 6.30635 6.77652 6 6.00535 6C5.23418 6 4.4946 6.30635 3.9493 6.85164C3.404 7.39694 3.09766 8.13652 3.09766 8.90769V11.4H8.91304V8.90769Z" stroke="#111111" stroke-linecap="round" stroke-linejoin="round"></path><path d="M1.42969 0.601562H10.5682" stroke="#111111" stroke-linecap="round" stroke-linejoin="round"></path><path d="M1.42969 11.3984H10.5682" stroke="#111111" stroke-linecap="round" stroke-linejoin="round"></path></g><defs><clipPath id="clip0_6594_40789"><rect width="12" height="12" fill="white"></rect></clipPath></defs></svg>