<svg width="21" height="12" viewBox="0 0 21 12" fill="none" xmlns="http://www.w3.org/2000/svg"><path d="M19.5 6.75C19.9142 6.75 20.25 6.41421 20.25 6C20.25 5.58579 19.9142 5.25 19.5 5.25L19.5 6.75ZM0.969669 5.46967C0.676777 5.76256 0.676777 6.23744 0.969669 6.53033L5.74264 11.3033C6.03553 11.5962 6.51041 11.5962 6.8033 11.3033C7.09619 11.0104 7.09619 10.5355 6.8033 10.2426L2.56066 6L6.8033 1.75736C7.09619 1.46447 7.09619 0.989594 6.8033 0.6967C6.51041 0.403807 6.03553 0.403807 5.74264 0.6967L0.969669 5.46967ZM19.5 5.25L1.5 5.25L1.5 6.75L19.5 6.75L19.5 5.25Z" fill="var(--iconColor, #111)"></path></svg>