<svg width="108" height="32" viewBox="0 0 108 32" fill="none" xmlns="http://www.w3.org/2000/svg"><path d="M56.7232 14.5905H62.3519V14.0428H57.636C57.4839 14.0428 57.3622 13.9211 57.3622 13.769V11.1321H62.2505V10.5845H56.1756V14.0428C56.1756 14.3471 56.419 14.5905 56.7232 14.5905ZM55.5164 16.0712V16.6189H63.001V16.0712H55.5164Z" fill="var(--logoColor,#006543)"></path><path d="M49.4007 12.7752C50.7293 12.7752 51.5204 12.1058 51.5204 11.2843C51.5204 10.4628 50.7192 9.79346 49.4007 9.79346C48.0823 9.79346 47.2811 10.4628 47.2811 11.2843C47.2811 12.1058 48.0722 12.7752 49.4007 12.7752ZM49.4007 10.2498C49.9585 10.2498 50.3845 10.7265 50.3845 11.3147C50.3845 11.903 49.9585 12.3796 49.4007 12.3796C48.8429 12.3796 48.417 11.903 48.417 11.3147C48.417 10.7265 48.8429 10.2498 49.4007 10.2498ZM48.8632 14.4486H50.06V13.5358H51.5102C51.9362 13.5358 52.5143 13.4749 52.7577 13.3532V14.2964H53.9544V9.98615H52.7577V11.9131H51.6624V12.4506H52.7577V12.836C52.4737 12.9374 51.9058 12.9983 51.5711 12.9983H46.9363V13.5459H48.8632V14.4587V14.4486ZM49.2588 17.1057C49.1066 17.1057 49.0255 17.0347 49.0255 16.8826V16.4668H53.9544V14.7224H47.849V15.2802H52.7678V15.9191H47.849V17.1158C47.849 17.4201 48.0924 17.6635 48.3967 17.6635H54.0558V17.1158H49.2588V17.1057Z" fill="var(--logoColor,#006543)"></path><path d="M45.3948 9.98633H44.2488V17.6535H45.3948V9.98633Z" fill="var(--logoColor,#006543)"></path><path d="M39.8879 15.2195C39.7358 15.2195 39.6141 15.0978 39.6141 14.9457V11.1324H41.7134V10.5847H38.4275V15.2296C38.4275 15.5339 38.6709 15.7773 38.9751 15.7773H41.5207C41.9061 15.7773 42.1597 15.7367 42.4234 15.6455V17.6434H43.5694V9.98633H42.4234V12.7449H40.9832V13.4244H42.4234V15.1079C42.1901 15.1688 41.9264 15.2094 41.5207 15.2094H39.8879V15.2195Z" fill="var(--logoColor,#006543)"></path><path d="M33.8332 14.0329V13.2824H36.3586V12.7348H31.5615C31.4093 12.7348 31.3282 12.6638 31.3282 12.5116V11.9741H36.2571V10.1182H30.1518V10.6658H35.0705V11.4163H30.1518V12.7246C30.1518 13.0289 30.3952 13.2723 30.6994 13.2723H32.6466V14.0228H29.5027V14.5806H36.9975V14.0228H33.8332V14.0329ZM33.8637 14.9355H32.5351C32.1801 16.3959 30.456 17.0653 29.8272 17.1566L30.1518 17.6434C30.8008 17.5623 32.2714 17.0957 33.1943 16.0917C34.1172 17.0957 35.5979 17.5724 36.247 17.6434L36.5715 17.1566C35.9427 17.0653 34.2085 16.3959 33.8637 14.9355Z" fill="var(--logoColor,#006543)"></path><path d="M67.4228 21.4764H69.086V21.801H67.4228V23.1093H66.6216V20.7564C66.6216 20.6651 66.6216 20.5941 66.652 20.5434C66.6723 20.4927 66.7027 20.4521 66.7331 20.4217C66.7636 20.3913 66.8041 20.371 66.8548 20.371C66.8954 20.371 66.9461 20.3608 66.9968 20.3608H69.1165V20.6955H67.6662C67.6662 20.6955 67.5851 20.6955 67.5546 20.6955C67.5242 20.6955 67.5039 20.7057 67.4836 20.7259C67.4634 20.7361 67.4532 20.7564 67.4431 20.7868C67.4431 20.8172 67.4329 20.8578 67.4329 20.9085V21.4866L67.4228 21.4764Z" fill="var(--logoColor,#006543)"></path><path d="M72.6863 21.7301C72.6863 21.9329 72.6559 22.1155 72.5849 22.298C72.5139 22.4806 72.4125 22.6429 72.2705 22.7747C72.1285 22.9167 71.9662 23.0181 71.7634 23.0993C71.5605 23.1804 71.3374 23.221 71.0737 23.221C70.81 23.221 70.5768 23.1804 70.3739 23.0993C70.1711 23.0181 69.9987 22.9066 69.8669 22.7747C69.735 22.6327 69.6336 22.4806 69.5626 22.298C69.4916 22.1155 69.4612 21.9228 69.4612 21.7301C69.4612 21.5374 69.4916 21.3447 69.5626 21.1622C69.6234 20.9796 69.7249 20.8173 69.8567 20.6855C69.9886 20.5435 70.161 20.4421 70.3638 20.361C70.5666 20.2798 70.7999 20.2393 71.0737 20.2393C71.3476 20.2393 71.5808 20.2798 71.7837 20.361C71.9865 20.4421 72.1589 20.5537 72.2907 20.6855C72.4226 20.8275 72.524 20.9796 72.5849 21.1622C72.6457 21.3447 72.6863 21.5374 72.6863 21.7301ZM71.0737 20.5435C70.952 20.5435 70.8405 20.5739 70.7391 20.6348C70.6376 20.6956 70.5464 20.7869 70.4754 20.8883C70.4044 20.9999 70.3435 21.1216 70.303 21.2636C70.2624 21.4056 70.2421 21.5577 70.2421 21.72C70.2421 21.8822 70.2624 22.0344 70.303 22.1763C70.3435 22.3183 70.4044 22.4502 70.4754 22.5516C70.5464 22.6632 70.6376 22.7443 70.7391 22.8051C70.8405 22.866 70.952 22.8964 71.0737 22.8964C71.1954 22.8964 71.307 22.866 71.4084 22.8051C71.5098 22.7443 71.6011 22.6632 71.6721 22.5516C71.7431 22.44 71.8039 22.3183 71.8445 22.1763C71.8851 22.0344 71.9054 21.8822 71.9054 21.72C71.9054 21.5577 71.8851 21.4056 71.8445 21.2636C71.8039 21.1216 71.7431 20.9898 71.6721 20.8883C71.6011 20.7768 71.5098 20.6956 71.4084 20.6348C71.307 20.5739 71.1954 20.5435 71.0737 20.5435Z" fill="var(--logoColor,#006543)"></path><path d="M73.964 22.592C73.964 22.6529 73.964 22.6935 73.9945 22.734C74.0148 22.7645 74.0553 22.7847 74.1263 22.7847H75.4752V23.1194H73.5077C73.3961 23.1194 73.315 23.089 73.2541 23.0281C73.1933 22.9673 73.1628 22.876 73.1628 22.7543V20.3608H73.964V22.6022V22.592Z" fill="var(--logoColor,#006543)"></path><path d="M77.6559 23.1096L76.7837 21.9636L76.5707 22.1563V23.1096H75.7695V20.3511H76.5707V21.5377L77.7979 20.3511H78.447L77.3314 21.4667L78.5788 23.1096H77.6559Z" fill="var(--logoColor,#006543)"></path><path d="M81.3068 23.1096C81.3068 23.1096 81.2561 23.1096 81.2257 23.1096C81.2054 23.1096 81.175 23.1096 81.1547 23.0894C81.1344 23.0792 81.104 23.0488 81.0837 23.0184C81.0634 22.9879 81.033 22.9372 81.0127 22.8662L80.3332 21.061V23.1096H79.8667V20.5843C79.8667 20.5235 79.887 20.4626 79.9275 20.4221C79.9681 20.3815 80.029 20.3511 80.1101 20.3511H80.6172C80.6983 20.3511 80.7693 20.3714 80.82 20.4221C80.8707 20.4626 80.9113 20.5235 80.9417 20.5843L81.4894 22.1563L82.0878 20.5843C82.108 20.5235 82.1486 20.4626 82.2095 20.4221C82.2602 20.3815 82.3312 20.3511 82.4123 20.3511H82.96C83.0411 20.3511 83.1019 20.3714 83.1425 20.4221C83.1831 20.4626 83.2034 20.5235 83.2034 20.5843V23.1096H82.4022V21.0204L81.6821 22.9068C81.6618 22.9575 81.6415 22.9981 81.6212 23.0285C81.601 23.0589 81.5807 23.0792 81.5604 23.0894C81.5401 23.0995 81.5097 23.1096 81.4894 23.1096C81.4691 23.1096 81.4387 23.1096 81.4184 23.1096H81.317H81.3068Z" fill="var(--logoColor,#006543)"></path><path d="M84.451 20.3511V22.1766C84.451 22.2983 84.4713 22.3997 84.5017 22.491C84.5321 22.5823 84.5828 22.6533 84.6437 22.7141C84.7045 22.775 84.7654 22.8155 84.8465 22.846C84.9276 22.8764 85.0088 22.8865 85.1001 22.8865C85.1913 22.8865 85.2725 22.8764 85.3536 22.846C85.4347 22.8155 85.5057 22.775 85.5564 22.7141C85.6173 22.6533 85.6579 22.5823 85.6984 22.491C85.7288 22.3997 85.7491 22.2983 85.7491 22.1766V20.3511H86.5503V22.065C86.5503 22.2375 86.5199 22.3997 86.4489 22.5417C86.3779 22.6837 86.2866 22.8054 86.1548 22.9068C86.0331 23.0082 85.881 23.0894 85.6984 23.1401C85.5159 23.1908 85.3232 23.2212 85.1001 23.2212C84.8769 23.2212 84.6741 23.1908 84.5017 23.1401C84.3191 23.0894 84.167 23.0082 84.0453 22.9068C83.9236 22.8054 83.8222 22.6837 83.7613 22.5417C83.7005 22.3997 83.6599 22.2375 83.6599 22.065V20.3511H84.451Z" fill="var(--logoColor,#006543)"></path><path d="M89.1262 21.0506C89.1262 20.9694 89.0957 20.8984 89.0653 20.8477C89.0247 20.797 88.9842 20.7463 88.9233 20.7159C88.8726 20.6753 88.8118 20.655 88.7509 20.6347C88.6901 20.6145 88.6292 20.6043 88.5684 20.5942C88.5075 20.5942 88.4568 20.584 88.4162 20.584C88.3757 20.584 88.3452 20.584 88.325 20.584C88.3047 20.584 88.254 20.584 88.1931 20.5942C88.1221 20.5942 88.0613 20.6246 87.9903 20.655C87.9193 20.6855 87.8584 20.726 87.7976 20.7767C87.7367 20.8274 87.7164 20.8984 87.7164 20.9897C87.7164 21.0506 87.7367 21.1013 87.7672 21.1418C87.7976 21.1824 87.8483 21.2128 87.9294 21.2433C88.0004 21.2737 88.1018 21.294 88.2235 21.3244C88.3452 21.3447 88.4974 21.3751 88.6901 21.3954C88.8828 21.4258 89.0552 21.4562 89.2073 21.4968C89.3594 21.5374 89.4913 21.5982 89.6028 21.6591C89.7144 21.7301 89.7955 21.8112 89.8462 21.9025C89.9071 21.9938 89.9375 22.1053 89.9375 22.227C89.9375 22.2879 89.9375 22.3589 89.9274 22.4299C89.9172 22.5008 89.8969 22.5718 89.8564 22.653C89.8259 22.724 89.7752 22.795 89.7144 22.8659C89.6535 22.9369 89.5724 22.9978 89.471 23.0485C89.3696 23.0992 89.2479 23.1499 89.1059 23.1803C88.9639 23.2108 88.7915 23.2311 88.5988 23.2412C88.4974 23.2412 88.3858 23.2412 88.2742 23.2412C88.1525 23.2412 88.041 23.2209 87.9193 23.1905C87.8077 23.1702 87.686 23.1296 87.5846 23.0891C87.473 23.0485 87.3716 22.9877 87.2905 22.9167C87.1992 22.8457 87.1282 22.7544 87.0674 22.653C87.0065 22.5516 86.966 22.4197 86.9558 22.2777H87.686C87.7063 22.3994 87.7367 22.5008 87.7976 22.582C87.8584 22.6631 87.9294 22.7341 88.0106 22.7848C88.0917 22.8355 88.183 22.8761 88.2844 22.8964C88.3858 22.9167 88.4872 22.9268 88.5785 22.9268C88.8118 22.9268 88.9842 22.8761 89.0856 22.8051C89.187 22.7341 89.2479 22.6428 89.2479 22.5414C89.2479 22.44 89.2174 22.369 89.1566 22.3081C89.0957 22.2473 89.0146 22.1966 88.9233 22.1662C88.832 22.1357 88.7306 22.1053 88.6191 22.0952C88.5075 22.0749 88.4061 22.0647 88.3148 22.0546C88.254 22.0546 88.1728 22.0343 88.0917 22.0242C88.0106 22.014 87.9091 21.9938 87.8179 21.9735C87.7266 21.9532 87.6252 21.9228 87.5339 21.8822C87.4426 21.8416 87.3513 21.8011 87.2803 21.7402C87.2094 21.6794 87.1384 21.6084 87.0978 21.5272C87.0471 21.4461 87.0268 21.3447 87.0167 21.2331C87.0167 21.0607 87.0471 20.9187 87.1282 20.797C87.2094 20.6753 87.3108 20.5739 87.4426 20.5029C87.5745 20.4218 87.7165 20.3711 87.8787 20.3305C88.041 20.2899 88.2033 20.2798 88.3655 20.2798C88.4568 20.2798 88.5481 20.2798 88.6495 20.2798C88.7509 20.2798 88.8625 20.3001 88.974 20.3204C89.0856 20.3406 89.187 20.3711 89.2986 20.4116C89.4 20.4522 89.5014 20.5029 89.5825 20.5638C89.6637 20.6246 89.7448 20.6956 89.7955 20.7869C89.8564 20.868 89.8969 20.9694 89.9071 21.0911H89.1769L89.1262 21.0506Z" fill="var(--logoColor,#006543)"></path><path d="M92.7773 21.4764V21.801H91.1445V22.5819C91.1445 22.5819 91.1445 22.6326 91.1445 22.663C91.1445 22.6833 91.1445 22.7137 91.1647 22.7239C91.185 22.734 91.1952 22.7543 91.2256 22.7645C91.256 22.7645 91.2865 22.7746 91.327 22.7746H92.7874V23.1093H90.7388C90.6779 23.1093 90.6272 23.1093 90.5765 23.0991C90.5258 23.0991 90.4852 23.0788 90.4548 23.0484C90.4143 23.018 90.394 22.9774 90.3737 22.9267C90.3534 22.876 90.3433 22.805 90.3433 22.7137V20.7564C90.3433 20.6651 90.3534 20.5941 90.3737 20.5434C90.394 20.4927 90.4244 20.4521 90.4548 20.4217C90.4852 20.3913 90.5258 20.371 90.5765 20.371C90.6171 20.371 90.6678 20.3608 90.7185 20.3608H92.7874V20.6955H91.3473C91.2763 20.6955 91.2256 20.7057 91.185 20.7259C91.1546 20.7462 91.1343 20.8071 91.1343 20.8882V21.4866H92.7672L92.7773 21.4764Z" fill="var(--logoColor,#006543)"></path><path d="M93.9942 20.3511V22.1766C93.9942 22.2983 94.0145 22.3997 94.0449 22.491C94.0753 22.5823 94.126 22.6533 94.1869 22.7141C94.2477 22.775 94.3086 22.8155 94.3897 22.846C94.4709 22.8764 94.552 22.8865 94.6433 22.8865C94.7345 22.8865 94.8157 22.8764 94.8968 22.846C94.9779 22.8155 95.0489 22.775 95.0996 22.7141C95.1605 22.6533 95.2011 22.5823 95.2416 22.491C95.2721 22.3997 95.2923 22.2983 95.2923 22.1766V20.3511H96.0935V22.065C96.0935 22.2375 96.0631 22.3997 95.9921 22.5417C95.9211 22.6837 95.8299 22.8054 95.698 22.9068C95.5763 23.0082 95.4242 23.0894 95.2416 23.1401C95.0591 23.1908 94.8664 23.2212 94.6433 23.2212C94.4201 23.2212 94.2173 23.1908 94.0449 23.1401C93.8623 23.0894 93.7102 23.0082 93.5885 22.9068C93.4668 22.8054 93.3654 22.6837 93.3045 22.5417C93.2437 22.3997 93.2031 22.2375 93.2031 22.065V20.3511H93.9942Z" fill="var(--logoColor,#006543)"></path><path d="M98.0307 23.1096C98.0307 23.1096 97.98 23.1096 97.9496 23.1096C97.9293 23.1096 97.8989 23.1096 97.8786 23.0894C97.8583 23.0691 97.8279 23.0488 97.8076 23.0184C97.7873 22.9879 97.7569 22.9372 97.7366 22.8662L97.0571 21.061V23.1096H96.5906V20.5843C96.5906 20.5235 96.6109 20.4626 96.6514 20.4221C96.692 20.3815 96.7529 20.3511 96.834 20.3511H97.3411C97.4222 20.3511 97.4932 20.3714 97.5439 20.4221C97.5946 20.4626 97.6352 20.5235 97.6656 20.5843L98.2133 22.1563L98.8116 20.5843C98.8319 20.5235 98.8725 20.4626 98.9333 20.4221C98.9841 20.3815 99.055 20.3511 99.1362 20.3511H99.6838C99.765 20.3511 99.8258 20.3714 99.8664 20.4221C99.907 20.4626 99.9272 20.5235 99.9272 20.5843V23.1096H99.126V21.0204L98.406 22.9068C98.3857 22.9575 98.3654 22.9981 98.3451 23.0285C98.3248 23.0589 98.3045 23.0792 98.2843 23.0894C98.264 23.0995 98.2335 23.1096 98.2133 23.1096C98.193 23.1096 98.1626 23.1096 98.1423 23.1096H98.0409H98.0307Z" fill="var(--logoColor,#006543)"></path><path d="M66.7837 14.1645C66.5403 14.1645 66.3577 14.1036 66.236 13.9718C66.1143 13.84 66.0535 13.6676 66.0535 13.4546V10.1585H70.313V14.1645H66.7837ZM67.2198 13.3937C67.2198 13.4546 67.2299 13.5053 67.2603 13.5458C67.2908 13.5763 67.3415 13.5966 67.4226 13.5966H69.167V10.7467H67.2096V13.3937H67.2198ZM68.4571 16.8115C68.4571 16.8115 68.4571 16.8825 68.4571 16.9129C68.4571 16.9434 68.4672 16.9738 68.4875 17.0042C68.5078 17.0346 68.5382 17.0549 68.5788 17.0651C68.6194 17.0853 68.6802 17.0955 68.7512 17.0955H73.2136V17.6736H67.8891C67.737 17.6736 67.6254 17.6533 67.5443 17.6026C67.4632 17.5519 67.4125 17.5012 67.3719 17.4302C67.3313 17.3592 67.3111 17.2882 67.3111 17.1969C67.3111 17.1158 67.3111 17.0346 67.3111 16.9535V15.0266H68.4672V16.8014L68.4571 16.8115ZM71.814 9.87451H72.9803V15.3917H71.814V9.87451Z" fill="var(--logoColor,#006543)"></path><path d="M78.7105 12.6739V13.7895H82.2094V14.3575H74.2988V13.7895H77.5341V12.6739H78.7105ZM78.7612 9.99647V10.3717C78.7612 10.6557 78.8424 10.9194 79.0148 11.1526C79.1872 11.396 79.4103 11.5989 79.674 11.7814C79.9377 11.964 80.2419 12.1161 80.5665 12.2378C80.891 12.3595 81.2054 12.4406 81.5198 12.4914L81.2358 12.9579C81.0634 12.9579 80.8302 12.9173 80.5462 12.8666C80.2622 12.8058 79.9681 12.7246 79.6639 12.6131C79.3596 12.5015 79.0756 12.3595 78.7917 12.1871C78.5077 12.0147 78.2947 11.8119 78.1324 11.5786C77.9904 11.7916 77.7876 11.9843 77.5442 12.1465C77.2907 12.3088 77.027 12.4508 76.7329 12.5623C76.4489 12.6739 76.1548 12.7652 75.8505 12.8362C75.5463 12.9072 75.2826 12.9376 75.0392 12.9579L74.7552 12.4914C75.1 12.4305 75.4449 12.3392 75.7694 12.2074C76.0939 12.0755 76.388 11.9234 76.6416 11.7409C76.8951 11.5583 77.098 11.3453 77.2501 11.1121C77.4022 10.8788 77.4732 10.6253 77.4732 10.3616V9.98633H78.7511L78.7612 9.99647ZM81.1344 15.1079V17.755H79.9884V15.686H75.0493V15.1079H81.1344Z" fill="var(--logoColor,#006543)"></path><path d="M83.6596 13.8907C83.4162 13.8907 83.2438 13.8298 83.1322 13.7183C83.0207 13.6067 82.97 13.4343 82.97 13.2213V10.0368H84.1261V11.3755H86.0328V10.0368H87.1687V13.8907H83.6495H83.6596ZM88.477 15.4119H83.6698V14.844H89.6433V17.7446H88.477V15.4018V15.4119ZM84.1261 13.1098C84.1261 13.1706 84.1363 13.2213 84.1667 13.2619C84.1971 13.2923 84.2478 13.3126 84.329 13.3126H86.0328V11.9434H84.1261V13.1098ZM88.477 9.87451H89.6433V11.5986H90.982V12.1767H89.6433V14.3268H88.477V9.87451Z" fill="var(--logoColor,#006543)"></path><path d="M92.8582 17.7547C92.696 17.7547 92.554 17.704 92.4323 17.5924C92.3106 17.4809 92.2497 17.349 92.2497 17.1766V15.9089H96.9657V15.2192H92.2497V14.6412H94.6229V13.8805H91.2964V13.3227H99.2172V13.8805H95.8298V14.6412H98.132V16.4768H93.4262V16.9434C93.4262 17.0346 93.4465 17.0955 93.4769 17.1259C93.5073 17.1563 93.5682 17.1766 93.6493 17.1766H98.2537V17.7547H92.8582ZM92.9799 12.6534C92.7365 12.6534 92.554 12.5925 92.4323 12.4607C92.3106 12.3288 92.2497 12.1564 92.2497 11.9434V10.0063H98.1421V12.6534H92.9799ZM93.4059 11.8826C93.4059 12.0144 93.4769 12.0854 93.6189 12.0854H97.0062V10.5946H93.416V11.8826H93.4059Z" fill="var(--logoColor,#006543)"></path><path d="M105.586 14.1848C105.343 14.2456 105.109 14.2862 104.896 14.3065C104.684 14.3166 104.43 14.3268 104.156 14.3268H99.6836V13.7385H101.164V12.0854H102.27V13.7385H104.176C104.44 13.7385 104.673 13.7385 104.896 13.7081C105.12 13.6878 105.343 13.6574 105.586 13.6067V9.87451H106.752V12.41H108V12.988H106.752V15.5742H105.586V14.1848ZM100.069 10.1585H104.592V11.6798C104.592 11.9942 104.562 12.2883 104.501 12.552C104.44 12.8258 104.339 13.0692 104.207 13.2822H103.223C103.284 13.1098 103.335 12.8968 103.375 12.6331C103.426 12.3694 103.446 12.0651 103.446 11.7102V10.7366H100.079V10.1585H100.069ZM102.107 16.8318C102.107 16.9028 102.128 16.9738 102.158 17.0144C102.189 17.0651 102.26 17.0853 102.381 17.0853H106.874V17.6634H101.6C101.387 17.6634 101.225 17.6026 101.114 17.4707C101.002 17.3389 100.941 17.1766 100.941 16.9839V15.1483H102.097V16.8217L102.107 16.8318Z" fill="var(--logoColor,#006543)"></path><path d="M15.9938 14.2246C17.0079 14.9345 18.0424 14.3868 18.0424 14.3868C17.3629 15.8574 15.2838 15.8067 15.2838 15.8067H11.3691C8.82349 15.8067 8.44824 14.4071 8.44824 14.4071C9.70583 14.9041 10.6389 14.0217 10.6389 14.0217C12.3021 12.5714 13.2048 11.1719 13.2048 11.1719C14.4928 12.9771 15.9938 14.2043 15.9938 14.2043V14.2246ZM13.2149 12.2773C13.2149 12.2773 11.795 13.829 11.2474 14.3158C11.2474 14.3158 10.5172 15.046 9.87824 14.9548C9.87824 14.9548 10.1521 15.2286 11.3691 15.2286H15.0911C15.0911 15.2286 16.1155 15.2286 16.4907 14.9548C16.4907 14.9548 15.6692 14.8128 14.8477 13.9913C14.8477 13.9913 13.7727 12.9873 13.2048 12.2773H13.2149Z" fill="var(--logoColor,#006A44)"></path><path d="M3.82347 11.8419C3.82347 11.8419 4.22914 12.136 3.51921 13.1198C3.51921 13.1198 2.15007 15.0366 0 14.3774C0 14.3774 0.476665 15.8276 2.71801 15.8276H8.60026L8.55969 15.2191H2.50503C2.50503 15.2191 1.56184 15.2597 1.359 14.8743C1.359 14.8743 1.70383 15.0366 2.88028 14.4788C2.88028 14.4788 3.75247 14.1644 4.44212 12.8561C4.44212 12.8561 4.67538 13.1502 5.44616 13.1502H11.227V12.5214H5.44616C5.44616 12.5214 4.67538 12.5417 4.43197 12.1259C4.43197 12.1259 4.30013 11.7608 3.82347 11.8521V11.8419Z" fill="var(--logoColor,#006A44)"></path><path d="M22.5859 11.8419C22.5859 11.8419 22.1802 12.136 22.8902 13.1198C22.8902 13.1198 24.2593 15.0366 26.4094 14.3774C26.4094 14.3774 25.9327 15.8276 23.6914 15.8276H17.8091L17.8497 15.2191H23.9043C23.9043 15.2191 24.8475 15.2597 25.0504 14.8743C25.0504 14.8743 24.7055 15.0366 23.5291 14.4788C23.5291 14.4788 22.6569 14.1644 21.9672 12.8561C21.9672 12.8561 21.734 13.1502 20.9632 13.1502H15.1824V12.5214H20.9632C20.9632 12.5214 21.734 12.5417 21.9774 12.1259C21.9774 12.1259 22.1092 11.7608 22.5859 11.8521V11.8419Z" fill="var(--logoColor,#006A44)"></path><path d="M19.4014 10.7058H21.8354C20.7401 9.002 19.158 7.65314 17.2919 6.8418L16.5515 8.6369C17.6468 9.11356 18.6204 9.82349 19.4115 10.7058H19.4014Z" fill="var(--logoColor,#50B748)"></path><path d="M13.2352 7.94685C14.3 7.94685 15.3244 8.14969 16.2676 8.52494L17.0079 6.72983C15.8416 6.26331 14.5637 6.00977 13.2352 6.00977C11.9066 6.00977 10.6287 6.26331 9.4624 6.72983L10.2028 8.52494C11.1358 8.15983 12.1601 7.95699 13.225 7.95699L13.2352 7.94685Z" fill="var(--logoColor,#50B748)"></path><path d="M9.92879 8.6369L9.18844 6.8418C7.31221 7.65314 5.73008 9.002 4.63477 10.7058H7.0688C7.85986 9.82349 8.83348 9.11356 9.92879 8.6369Z" fill="var(--logoColor,#50B748)"></path><path d="M16.5413 23.8087L17.2816 25.6038C19.1579 24.7924 20.74 23.4334 21.8353 21.7397H19.4013C18.6102 22.6221 17.6366 23.332 16.5413 23.8087Z" fill="var(--logoColor,#50B748)"></path><path d="M13.235 24.4985C12.1702 24.4985 11.1458 24.2957 10.2026 23.9204L9.45215 25.7155C10.6185 26.182 11.8963 26.4356 13.2249 26.4356C14.5535 26.4356 15.8314 26.182 16.9977 25.7155L16.2472 23.9204C15.3141 24.2855 14.2898 24.4884 13.2249 24.4884L13.235 24.4985Z" fill="var(--logoColor,#50B748)"></path><path d="M7.0688 21.7397H4.63477C5.73008 23.4436 7.31221 24.7924 9.18844 25.6038L9.92879 23.8087C8.83348 23.3219 7.85986 22.6119 7.0688 21.7397Z" fill="var(--logoColor,#50B748)"></path><path d="M20.9429 10.7056H21.8353C21.0646 9.50886 20.0504 8.48453 18.8739 7.70361L18.4683 8.32226C19.4317 8.9612 20.2735 9.77254 20.9429 10.7157V10.7056Z" fill="var(--logoColor,#00844A)"></path><path d="M13.235 6.74035C13.9043 6.74035 14.5636 6.81135 15.1924 6.94319L15.3445 6.22312C14.665 6.08113 13.9551 6 13.235 6C12.5149 6 11.805 6.08113 11.1255 6.22312L11.2776 6.94319C11.9064 6.81135 12.5656 6.74035 13.235 6.74035Z" fill="var(--logoColor,#00844A)"></path><path d="M4.62476 10.706H5.51724C6.19674 9.76278 7.03851 8.95143 8.00198 8.3125L7.59631 7.69385C6.40972 8.47477 5.39553 9.49909 4.6349 10.6958L4.62476 10.706Z" fill="var(--logoColor,#00844A)"></path><path d="M21.8353 21.7397H20.9429C20.2735 22.6829 19.4317 23.4841 18.4683 24.1332L18.8739 24.7519C20.0605 23.9709 21.0747 22.9365 21.8353 21.7499V21.7397Z" fill="var(--logoColor,#00844A)"></path><path d="M13.235 25.7063C12.5656 25.7063 11.9064 25.6353 11.2776 25.5034L11.1255 26.2235C11.805 26.3655 12.5149 26.4365 13.235 26.4365C13.9551 26.4365 14.665 26.3655 15.3445 26.2235L15.1924 25.5034C14.5636 25.6353 13.9043 25.7063 13.235 25.7063Z" fill="var(--logoColor,#00844A)"></path><path d="M5.51724 21.7396H4.62476C5.39553 22.9364 6.40972 23.9607 7.58617 24.7416L7.99184 24.123C7.02837 23.484 6.1866 22.6727 5.50709 21.7295L5.51724 21.7396Z" fill="var(--logoColor,#00844A)"></path><path d="M8.70165 11.0811C9.30001 11.1217 9.6854 10.7059 9.76654 10.5233C9.84767 10.3408 10.0302 10.3002 10.1621 10.4524C10.2838 10.6146 10.4055 10.5842 10.4055 10.5842H15.8922C15.8922 10.5842 16.0038 10.6146 16.1356 10.4524C16.2674 10.3002 16.45 10.3408 16.5311 10.5233C16.6123 10.7059 16.9977 11.1217 17.596 11.0811C17.596 11.0811 17.7786 11.1826 17.7684 11.3347C17.7583 11.497 17.6163 11.5071 17.525 11.5071C17.4338 11.5071 16.7847 11.5375 16.2674 11.0406H10.0099C9.49271 11.5375 8.84363 11.5071 8.75236 11.5071C8.66108 11.5071 8.52924 11.497 8.50895 11.3347C8.49881 11.1724 8.68136 11.0811 8.68136 11.0811H8.70165Z" fill="var(--logoColor,#006543)"></path><path d="M11.6125 15.5537H10.7708V18.7585H11.6125V15.5537Z" fill="var(--logoColor,#006543)"></path><path d="M15.7097 15.5537H14.8679V18.7585H15.7097V15.5537Z" fill="var(--logoColor,#006543)"></path><path d="M16.0646 19.0933H10.375V19.5192H16.0646V19.0933Z" fill="var(--logoColor,#006543)"></path><path d="M17.1801 21.1719H9.31006V22.1861H17.1801V21.1719Z" fill="var(--logoColor,#006543)"></path><path d="M16.5919 19.9648H9.88818V20.6342H16.5919V19.9648Z" fill="var(--logoColor,#006543)"></path><path d="M24.1578 16.4258H23.5898V18.2919H24.1578V16.4258Z" fill="var(--logoColor,#006543)"></path><path d="M18.9244 16.7397H16.5918V17.4091H18.9244V16.7397Z" fill="var(--logoColor,#006543)"></path><path d="M18.3262 18.1597H17.1599V18.7378H18.3262V18.1597Z" fill="var(--logoColor,#006543)"></path><path d="M2.89034 16.4258H2.31226V18.2919H2.89034V16.4258Z" fill="var(--logoColor,#006543)"></path><path d="M9.87803 16.7397H7.54541V17.4091H9.87803V16.7397Z" fill="var(--logoColor,#006543)"></path><path d="M9.31011 18.1597H8.1438V18.7378H9.31011V18.1597Z" fill="var(--logoColor,#006543)"></path><path d="M9.33034 19.3462H1.24731V20.2082H9.33034V19.3462Z" fill="var(--logoColor,#006543)"></path><path d="M25.2529 19.3462H17.1699V20.2082H25.2529V19.3462Z" fill="var(--logoColor,#006543)"></path><path d="M21.7846 18.1896H20.6994V15.6846H19.9895V18.7373H22.4844V15.6846H21.7846V18.1896Z" fill="var(--logoColor,#006543)"></path><path d="M5.77067 18.1896H4.68549V15.6846H3.99585V18.7373H6.48059V15.6846H5.77067V18.1896Z" fill="var(--logoColor,#006543)"></path><path d="M57.0781 22.2676C56.9462 22.004 56.8347 21.8315 56.5507 21.791C56.9158 21.7301 57.1592 21.4462 57.1592 21.0912C57.1592 20.6551 56.855 20.3001 56.1045 20.3103H54.8266C54.6441 20.3103 54.5122 20.4523 54.5122 20.6348V23.0587H55.2728V21.9127H55.6379C55.9422 21.9127 56.1248 22.0749 56.2465 22.2981L56.6116 23.0688H57.4432L57.0578 22.2879L57.0781 22.2676ZM55.8814 21.578H55.283V20.7869C55.283 20.6957 55.354 20.6247 55.4453 20.6247H55.9016C56.2059 20.6247 56.3783 20.8478 56.3783 21.0912C56.3783 21.3346 56.1957 21.5679 55.8814 21.5679V21.578Z" fill="var(--logoColor,#006543)"></path><path d="M61.713 20.311H60.354V23.0595H61.713C62.788 23.0595 63.2951 22.5118 63.2951 21.6903C63.2951 20.8688 62.788 20.3212 61.713 20.3212V20.311ZM61.6724 22.7248H61.1248V20.6356H61.6724C62.1897 20.6356 62.4838 21.0412 62.4838 21.6802C62.4838 22.3191 62.1897 22.7248 61.6724 22.7248Z" fill="var(--logoColor,#006543)"></path><path d="M52.3723 20.1992C51.3175 20.1992 50.6887 20.8686 50.6887 21.6901C50.6887 22.5116 51.3175 23.1809 52.3723 23.1809C53.427 23.1809 54.0558 22.5116 54.0558 21.6901C54.0558 20.8686 53.427 20.1992 52.3723 20.1992ZM52.3723 22.8564C51.8652 22.8564 51.4798 22.329 51.4798 21.6901C51.4798 21.0511 51.8652 20.5238 52.3723 20.5238C52.8794 20.5238 53.2647 21.0511 53.2647 21.6901C53.2647 22.329 52.8794 22.8564 52.3723 22.8564Z" fill="var(--logoColor,#006543)"></path><path d="M58.5892 20.311H57.8286V22.7349C57.8286 22.9175 57.9706 23.0595 58.1532 23.0595H60.0192V22.7349H58.7617C58.6704 22.7349 58.5994 22.6639 58.5994 22.5727V20.311H58.5892Z" fill="var(--logoColor,#006543)"></path><path d="M50.0904 20.311L49.5021 22.4814L48.8632 20.311H48.3054L47.6969 22.4814L47.0681 20.311H46.3379L47.0884 22.8465C47.129 22.9986 47.2101 23.0595 47.3419 23.0595H47.7679C47.8997 23.0595 47.9809 22.9885 48.0214 22.8465L48.4372 21.3658L48.8835 22.8465C48.9241 22.9885 49.0052 23.0595 49.137 23.0595H49.563C49.6948 23.0595 49.776 22.9885 49.8165 22.8465L50.5366 20.311H50.0802H50.0904Z" fill="var(--logoColor,#006543)"></path><path d="M34.0662 20.1992C32.9911 20.1992 32.342 20.8686 32.342 21.6901C32.342 22.5116 32.9911 23.1809 34.0662 23.1809C35.1412 23.1809 35.7903 22.5116 35.7903 21.6901C35.7903 20.8686 35.1412 20.1992 34.0662 20.1992ZM34.0662 22.8564C33.5489 22.8564 33.1534 22.329 33.1534 21.6901C33.1534 21.0511 33.5489 20.5238 34.0662 20.5238C34.5834 20.5238 34.9789 21.0511 34.9789 21.6901C34.9789 22.329 34.5834 22.8564 34.0662 22.8564Z" fill="var(--logoColor,#006543)"></path><path d="M35.9324 20.6356H37.0683V23.0493H37.9303V20.6356H38.8836V20.311H35.9324V20.6356Z" fill="var(--logoColor,#006543)"></path><path d="M39.198 20.6356H40.1615V23.0493H41.0134V20.6356H42.1493V20.311H39.198V20.6356Z" fill="var(--logoColor,#006543)"></path><path d="M30.6384 22.5625V20.311H29.8169V22.7248C29.8169 22.9073 29.9589 23.0493 30.1414 23.0493H32.2408V22.7248H30.8007C30.7094 22.7248 30.6384 22.6538 30.6384 22.5625Z" fill="var(--logoColor,#006543)"></path><path d="M42.616 20.635V22.7242C42.616 22.9067 42.758 23.0487 42.9405 23.0487H45.1818V22.7242H43.5997C43.5084 22.7242 43.4375 22.6532 43.4375 22.5619V21.7506H45.1514V21.426H43.4375V20.7871C43.4375 20.6958 43.5084 20.6248 43.5997 20.6248H45.1818V20.3003H42.9405C42.758 20.3003 42.616 20.4423 42.616 20.6248V20.635Z" fill="var(--logoColor,#006543)"></path></svg>