<svg width="20" height="20" viewBox="0 0 20 20" fill="none" xmlns="http://www.w3.org/2000/svg"><g clip-path="url(#clip0_6594_16694)"><path d="M10.6988 1.45308L12.9056 6.09874C12.9558 6.21666 13.0347 6.31879 13.1346 6.39497C13.2344 6.47115 13.3516 6.51871 13.4746 6.53292L18.3461 7.28548C18.4871 7.30439 18.6201 7.36475 18.7295 7.45952C18.8389 7.55429 18.9201 7.67956 18.9638 7.82069C19.0075 7.96183 19.0117 8.113 18.9761 8.25656C18.9404 8.40011 18.8663 8.53013 18.7625 8.63142L15.2511 12.264C15.1615 12.3513 15.0942 12.4606 15.0554 12.5819C15.0167 12.7033 15.0076 12.8328 15.029 12.9587L15.8756 18.0675C15.9002 18.2143 15.8847 18.3653 15.8309 18.5034C15.7772 18.6414 15.6874 18.761 15.5717 18.8485C15.456 18.9359 15.3191 18.9878 15.1765 18.9981C15.034 19.0084 14.8915 18.9768 14.7653 18.9069L10.3796 16.49C10.2673 16.4325 10.1439 16.4026 10.0188 16.4026C9.89366 16.4026 9.77022 16.4325 9.65792 16.49L5.27219 18.9069C5.14602 18.9768 5.00355 19.0084 4.861 18.9981C4.71845 18.9878 4.58154 18.9359 4.46585 18.8485C4.35016 18.761 4.26034 18.6414 4.2066 18.5034C4.15287 18.3653 4.13737 18.2143 4.16189 18.0675L5.0085 12.9008C5.02995 12.7749 5.02088 12.6454 4.98209 12.524C4.94331 12.4027 4.87605 12.2934 4.78643 12.2061L1.23345 8.63142C1.12833 8.52736 1.05441 8.39375 1.02063 8.24677C0.986857 8.09979 0.994678 7.94575 1.04315 7.80331C1.09162 7.66087 1.17866 7.53614 1.29372 7.44423C1.40879 7.35232 1.54694 7.29718 1.69145 7.28548L6.56293 6.53292C6.68589 6.51871 6.80314 6.47115 6.90298 6.39497C7.00282 6.31879 7.08177 6.21666 7.13196 6.09874L9.3387 1.45308C9.3988 1.31778 9.49476 1.20322 9.61526 1.12294C9.73576 1.04266 9.87577 1 10.0188 1C10.1618 1 10.3018 1.04266 10.4223 1.12294C10.5428 1.20322 10.6387 1.31778 10.6988 1.45308V1.45308Z" stroke="#111111" stroke-width="1.5" stroke-linecap="round" stroke-linejoin="round"></path></g><defs><clipPath id="clip0_6594_16694"><rect width="20" height="20" fill="white"></rect></clipPath></defs></svg>